  0
SECTION
  2
HEADER
  9
$ACADVER
  1
AC1014
  9
$HANDSEED
  5
FFFF
  9
$MEASUREMENT
 70
     1
  0
ENDSEC
  0
SECTION
  2
TABLES
  0
TABLE
  2
VPORT
  5
8
330
0
100
AcDbSymbolTable
 70
     4
  0
VPORT
  5
2E
330
8
100
AcDbSymbolTableRecord
100
AcDbViewportTableRecord
  2
*ACTIVE
 70
     0
 10
0.0
 20
0.0
 11
1.0
 21
1.0
 12
210.0
 22
148.5
 13
0.0
 23
0.0
 14
10.0
 24
10.0
 15
10.0
 25
10.0
 16
0.0
 26
0.0
 36
1.0
 17
0.0
 27
0.0
 37
0.0
 40
341.0
 41
1.24
 42
50.0
 43
0.0
 44
0.0
 50
0.0
 51
0.0
 71
     0
 72
   100
 73
     1
 74
     3
 75
     0
 76
     0
 77
     0
 78
     0
  0
ENDTAB
  0
TABLE
  2
LTYPE
  5
5
330
0
100
AcDbSymbolTable
 70
     1
  0
LTYPE
  5
14
330
5
100
AcDbSymbolTableRecord
100
AcDbLinetypeTableRecord
  2
BYBLOCK
 70
     0
  3

 72
    65
 73
     0
 40
0.0
  0
LTYPE
  5
15
330
5
100
AcDbSymbolTableRecord
100
AcDbLinetypeTableRecord
  2
BYLAYER
 70
     0
  3

 72
    65
 73
     0
 40
0.0
  0
LTYPE
  5
16
330
5
100
AcDbSymbolTableRecord
100
AcDbLinetypeTableRecord
  2
CONTINUOUS
 70
     0
  3
Solid line
 72
    65
 73
     0
 40
0.0
  0
ENDTAB
  0
TABLE
  2
LAYER
  5
2
100
AcDbSymbolTable
 70
2
  0
LAYER
  5
50
100
AcDbSymbolTableRecord
100
AcDbLayerTableRecord
  2
0
 70
0
  6
CONTINUOUS
  0
LAYER
  5
51
100
AcDbSymbolTableRecord
100
AcDbLayerTableRecord
  2
Layer_1
 70
0
  6
CONTINUOUS
  0
ENDTAB
  0
TABLE
  2
STYLE
  5
3
330
0
100
AcDbSymbolTable
 70
     1
  0
STYLE
  5
11
330
3
100
AcDbSymbolTableRecord
100
AcDbTextStyleTableRecord
  2
STANDARD
 70
     0
 40
0.0
 41
1.0
 50
0.0
 71
     0
 42
2.5
  3
txt
  4

  0
ENDTAB
  0
TABLE
  2
VIEW
  5
6
330
0
100
AcDbSymbolTable
 70
     0
  0
ENDTAB
  0
TABLE
  2
UCS
  5
7
330
0
100
AcDbSymbolTable
 70
     0
  0
ENDTAB
  0
TABLE
  2
APPID
  5
9
330
0
100
AcDbSymbolTable
 70
     2
  0
APPID
  5
12
330
9
100
AcDbSymbolTableRecord
100
AcDbRegAppTableRecord
  2
ACAD
 70
     0
  0
ENDTAB
  0
TABLE
  2
DIMSTYLE
  5
A
330
0
100
AcDbSymbolTable
 70
     1
  0
DIMSTYLE
105
27
330
A
100
AcDbSymbolTableRecord
100
AcDbDimStyleTableRecord
  2
ISO-25
 70
     0
  3

  4

  5

  6

  7

 40
1.0
 41
2.5
 42
0.625
 43
3.75
 44
1.25
 45
0.0
 46
0.0
 47
0.0
 48
0.0
140
2.5
141
2.5
142
0.0
143
0.03937007874016
144
1.0
145
0.0
146
1.0
147
0.625
 71
     0
 72
     0
 73
     0
 74
     0
 75
     0
 76
     0
 77
     1
 78
     8
170
     0
171
     3
172
     1
173
     0
174
     0
175
     0
176
     0
177
     0
178
     0
270
     2
271
     2
272
     2
273
     2
274
     3
340
11
275
     0
280
     0
281
     0
282
     0
283
     0
284
     8
285
     0
286
     0
287
     3
288
     0
  0
ENDTAB
  0
TABLE
  2
BLOCK_RECORD
  5
1
330
0
100
AcDbSymbolTable
 70
     1
  0
BLOCK_RECORD
  5
1F
330
1
100
AcDbSymbolTableRecord
100
AcDbBlockTableRecord
  2
*MODEL_SPACE
  0
BLOCK_RECORD
  5
1B
330
1
100
AcDbSymbolTableRecord
100
AcDbBlockTableRecord
  2
*PAPER_SPACE
  0
ENDTAB
  0
ENDSEC
  0
SECTION
  2
BLOCKS
  0
BLOCK
  5
20
330
1F
100
AcDbEntity
  8
0
100
AcDbBlockBegin
  2
*MODEL_SPACE
 70
     0
 10
0.0
 20
0.0
 30
0.0
  3
*MODEL_SPACE
  1

  0
ENDBLK
  5
21
330
1F
100
AcDbEntity
  8
0
100
AcDbBlockEnd
  0
BLOCK
  5
1C
330
1B
100
AcDbEntity
 67
     1
  8
0
100
AcDbBlockBegin
  2
*PAPER_SPACE
  1

  0
ENDBLK
  5
1D
330
1B
100
AcDbEntity
 67
     1
  8
0
100
AcDbBlockEnd
  0
ENDSEC
  0
SECTION
  2
ENTITIES
  0
LINE
  5
100
100
AcDbEntity
  8
Layer_1
 62
7
100
AcDbLine
 10
39.294909
 20
245.154463
 30
0.0
 11
38.696160
 21
245.740593
 31
0.0
  0
SPLINE
  5
101
100
AcDbEntity
  8
Layer_1
 62
7
100
AcDbSpline
 70
8
 71
3
 72
8
 73
4
 74
0
 40
0
 40
0
 40
0
 40
0
 40
1
 40
1
 40
1
 40
1
 10
38.696160
 20
245.740593
 30
0.0
 10
38.566299
 20
245.867713
 30
0.0
 10
38.497693
 20
246.008780
 30
0.0
 10
38.490343
 20
246.163793
 30
0.0
  0
SPLINE
  5
102
100
AcDbEntity
  8
Layer_1
 62
7
100
AcDbSpline
 70
8
 71
3
 72
8
 73
4
 74
0
 40
0
 40
0
 40
0
 40
0
 40
1
 40
1
 40
1
 40
1
 10
38.490343
 20
246.163793
 30
0.0
 10
38.482376
 20
246.318166
 30
0.0
 10
38.530678
 20
246.448767
 30
0.0
 10
38.635248
 20
246.555597
 30
0.0
  0
SPLINE
  5
103
100
AcDbEntity
  8
Layer_1
 62
7
100
AcDbSpline
 70
8
 71
3
 72
8
 73
4
 74
0
 40
0
 40
0
 40
0
 40
0
 40
1
 40
1
 40
1
 40
1
 10
38.635248
 20
246.555597
 30
0.0
 10
38.779902
 20
246.703368
 30
0.0
 10
38.963747
 20
246.737611
 30
0.0
 10
39.186783
 20
246.658328
 30
0.0
  0
SPLINE
  5
104
100
AcDbEntity
  8
Layer_1
 62
7
100
AcDbSpline
 70
8
 71
3
 72
8
 73
4
 74
0
 40
0
 40
0
 40
0
 40
0
 40
1
 40
1
 40
1
 40
1
 10
39.186783
 20
246.658328
 30
0.0
 10
39.148441
 20
246.754771
 30
0.0
 10
39.164939
 20
246.899593
 30
0.0
 10
39.236276
 20
247.092794
 30
0.0
  0
SPLINE
  5
105
100
AcDbEntity
  8
Layer_1
 62
7
100
AcDbSpline
 70
8
 71
3
 72
8
 73
4
 74
0
 40
0
 40
0
 40
0
 40
0
 40
1
 40
1
 40
1
 40
1
 10
39.236276
 20
247.092794
 30
0.0
 10
39.307008
 20
247.286620
 30
0.0
 10
39.372464
 20
247.470579
 30
0.0
 10
39.432643
 20
247.644669
 30
0.0
  0
LINE
  5
106
100
AcDbEntity
  8
Layer_1
 62
7
100
AcDbLine
 10
39.432643
 20
247.644669
 30
0.0
 11
39.800155
 21
247.284912
 31
0.0
  0
SPLINE
  5
107
100
AcDbEntity
  8
Layer_1
 62
7
100
AcDbSpline
 70
8
 71
3
 72
8
 73
4
 74
0
 40
0
 40
0
 40
0
 40
0
 40
1
 40
1
 40
1
 40
1
 10
39.800155
 20
247.284912
 30
0.0
 10
39.778673
 20
247.219483
 30
0.0
 10
39.734388
 20
247.098103
 30
0.0
 10
39.667301
 20
246.920773
 30
0.0
  0
SPLINE
  5
108
100
AcDbEntity
  8
Layer_1
 62
7
100
AcDbSpline
 70
8
 71
3
 72
8
 73
4
 74
0
 40
0
 40
0
 40
0
 40
0
 40
1
 40
1
 40
1
 40
1
 10
39.667301
 20
246.920773
 30
0.0
 10
39.599537
 20
246.744070
 30
0.0
 10
39.567957
 20
246.619027
 30
0.0
 10
39.572562
 20
246.545645
 30
0.0
  0
SPLINE
  5
109
100
AcDbEntity
  8
Layer_1
 62
7
100
AcDbSpline
 70
8
 71
3
 72
8
 73
4
 74
0
 40
0
 40
0
 40
0
 40
0
 40
1
 40
1
 40
1
 40
1
 10
39.572562
 20
246.545645
 30
0.0
 10
39.576176
 20
246.472893
 30
0.0
 10
39.600206
 20
246.414912
 30
0.0
 10
39.644652
 20
246.371699
 30
0.0
  0
LINE
  5
10a
100
AcDbEntity
  8
Layer_1
 62
7
100
AcDbLine
 10
39.644652
 20
246.371699
 30
0.0
 11
39.740603
 21
246.277771
 31
0.0
  0
LINE
  5
10b
100
AcDbEntity
  8
Layer_1
 62
7
100
AcDbLine
 10
39.740603
 20
246.277771
 30
0.0
 11
40.273193
 21
246.821834
 31
0.0
  0
LINE
  5
10c
100
AcDbEntity
  8
Layer_1
 62
7
100
AcDbLine
 10
40.273193
 20
246.821834
 30
0.0
 11
40.607117
 21
246.494953
 31
0.0
  0
LINE
  5
10d
100
AcDbEntity
  8
Layer_1
 62
7
100
AcDbLine
 10
40.607117
 20
246.494953
 30
0.0
 11
39.294909
 21
245.154463
 31
0.0
  0
LINE
  5
10e
100
AcDbEntity
  8
Layer_1
 62
7
100
AcDbLine
 10
39.201455
 20
245.726987
 30
0.0
 11
39.500153
 21
246.032123
 31
0.0
  0
LINE
  5
10f
100
AcDbEntity
  8
Layer_1
 62
7
100
AcDbLine
 10
39.500153
 20
246.032123
 30
0.0
 11
39.323596
 21
246.204957
 31
0.0
  0
SPLINE
  5
110
100
AcDbEntity
  8
Layer_1
 62
7
100
AcDbSpline
 70
8
 71
3
 72
8
 73
4
 74
0
 40
0
 40
0
 40
0
 40
0
 40
1
 40
1
 40
1
 40
1
 10
39.323596
 20
246.204957
 30
0.0
 10
39.267321
 20
246.260064
 30
0.0
 10
39.210025
 20
246.290473
 30
0.0
 10
39.151708
 20
246.296185
 30
0.0
  0
SPLINE
  5
111
100
AcDbEntity
  8
Layer_1
 62
7
100
AcDbSpline
 70
8
 71
3
 72
8
 73
4
 74
0
 40
0
 40
0
 40
0
 40
0
 40
1
 40
1
 40
1
 40
1
 10
39.151708
 20
246.296185
 30
0.0
 10
39.092117
 20
246.301848
 30
0.0
 10
39.038226
 20
246.280069
 30
0.0
 10
38.990035
 20
246.230848
 30
0.0
  0
SPLINE
  5
112
100
AcDbEntity
  8
Layer_1
 62
7
100
AcDbSpline
 70
8
 71
3
 72
8
 73
4
 74
0
 40
0
 40
0
 40
0
 40
0
 40
1
 40
1
 40
1
 40
1
 10
38.990035
 20
246.230848
 30
0.0
 10
38.891096
 20
246.129775
 30
0.0
 10
38.905264
 20
246.016931
 30
0.0
 10
39.032540
 20
245.892316
 30
0.0
  0
LINE
  5
113
100
AcDbEntity
  8
Layer_1
 62
7
100
AcDbLine
 10
39.032540
 20
245.892316
 30
0.0
 11
39.201455
 21
245.726987
 31
0.0
  0
SPLINE
  5
114
100
AcDbEntity
  8
Layer_1
 62
7
100
AcDbSpline
 70
8
 71
3
 72
8
 73
4
 74
0
 40
0
 40
0
 40
0
 40
0
 40
1
 40
1
 40
1
 40
1
 10
37.015401
 20
248.049575
 30
0.0
 10
36.872396
 20
248.335373
 30
0.0
 10
36.843100
 20
248.609996
 30
0.0
 10
36.927515
 20
248.873443
 30
0.0
  0
SPLINE
  5
115
100
AcDbEntity
  8
Layer_1
 62
7
100
AcDbSpline
 70
8
 71
3
 72
8
 73
4
 74
0
 40
0
 40
0
 40
0
 40
0
 40
1
 40
1
 40
1
 40
1
 10
36.927515
 20
248.873443
 30
0.0
 10
37.011104
 20
249.136490
 30
0.0
 10
37.167380
 20
249.325296
 30
0.0
 10
37.396342
 20
249.439861
 30
0.0
  0
SPLINE
  5
116
100
AcDbEntity
  8
Layer_1
 62
7
100
AcDbSpline
 70
8
 71
3
 72
8
 73
4
 74
0
 40
0
 40
0
 40
0
 40
0
 40
1
 40
1
 40
1
 40
1
 10
37.396342
 20
249.439861
 30
0.0
 10
37.628501
 20
249.556028
 30
0.0
 10
37.874703
 20
249.567109
 30
0.0
 10
38.134950
 20
249.473105
 30
0.0
  0
SPLINE
  5
117
100
AcDbEntity
  8
Layer_1
 62
7
100
AcDbSpline
 70
8
 71
3
 72
8
 73
4
 74
0
 40
0
 40
0
 40
0
 40
0
 40
1
 40
1
 40
1
 40
1
 10
38.134950
 20
249.473105
 30
0.0
 10
38.395197
 20
249.379103
 30
0.0
 10
38.595621
 20
249.191605
 30
0.0
 10
38.736222
 20
248.910610
 30
0.0
  0
SPLINE
  5
118
100
AcDbEntity
  8
Layer_1
 62
7
100
AcDbSpline
 70
8
 71
3
 72
8
 73
4
 74
0
 40
0
 40
0
 40
0
 40
0
 40
1
 40
1
 40
1
 40
1
 10
38.736222
 20
248.910610
 30
0.0
 10
38.878431
 20
248.626413
 30
0.0
 10
38.909341
 20
248.352591
 30
0.0
 10
38.828953
 20
248.089145
 30
0.0
  0
SPLINE
  5
119
100
AcDbEntity
  8
Layer_1
 62
7
100
AcDbSpline
 70
8
 71
3
 72
8
 73
4
 74
0
 40
0
 40
0
 40
0
 40
0
 40
1
 40
1
 40
1
 40
1
 10
38.828953
 20
248.089145
 30
0.0
 10
38.748559
 20
247.825699
 30
0.0
 10
38.591483
 20
247.635492
 30
0.0
 10
38.357725
 20
247.518523
 30
0.0
  0
SPLINE
  5
11a
100
AcDbEntity
  8
Layer_1
 62
7
100
AcDbSpline
 70
8
 71
3
 72
8
 73
4
 74
0
 40
0
 40
0
 40
0
 40
0
 40
1
 40
1
 40
1
 40
1
 10
38.357725
 20
247.518523
 30
0.0
 10
38.127964
 20
247.403558
 30
0.0
 10
37.882760
 20
247.391475
 30
0.0
 10
37.622114
 20
247.482276
 30
0.0
  0
SPLINE
  5
11b
100
AcDbEntity
  8
Layer_1
 62
7
100
AcDbSpline
 70
8
 71
3
 72
8
 73
4
 74
0
 40
0
 40
0
 40
0
 40
0
 40
1
 40
1
 40
1
 40
1
 10
37.622114
 20
247.482276
 30
0.0
 10
37.361066
 20
247.573875
 30
0.0
 10
37.158838
 20
247.762974
 30
0.0
 10
37.015431
 20
248.049573
 30
0.0
  0
LINE
  5
11c
100
AcDbEntity
  8
Layer_1
 62
7
100
AcDbLine
 10
37.015431
 20
248.049573
 30
0.0
 11
37.015401
 21
248.049575
 31
0.0
  0
SPLINE
  5
11d
100
AcDbEntity
  8
Layer_1
 62
7
100
AcDbSpline
 70
8
 71
3
 72
8
 73
4
 74
0
 40
0
 40
0
 40
0
 40
0
 40
1
 40
1
 40
1
 40
1
 10
38.387954
 20
248.736364
 30
0.0
 10
38.308640
 20
248.894874
 30
0.0
 10
38.197914
 20
248.999128
 30
0.0
 10
38.055776
 20
249.049128
 30
0.0
  0
SPLINE
  5
11e
100
AcDbEntity
  8
Layer_1
 62
7
100
AcDbSpline
 70
8
 71
3
 72
8
 73
4
 74
0
 40
0
 40
0
 40
0
 40
0
 40
1
 40
1
 40
1
 40
1
 10
38.055776
 20
249.049128
 30
0.0
 10
37.912845
 20
249.098729
 30
0.0
 10
37.764925
 20
249.085275
 30
0.0
 10
37.612015
 20
249.008766
 30
0.0
  0
SPLINE
  5
11f
100
AcDbEntity
  8
Layer_1
 62
7
100
AcDbSpline
 70
8
 71
3
 72
8
 73
4
 74
0
 40
0
 40
0
 40
0
 40
0
 40
1
 40
1
 40
1
 40
1
 10
37.612015
 20
249.008766
 30
0.0
 10
37.458313
 20
248.931855
 30
0.0
 10
37.358862
 20
248.821532
 30
0.0
 10
37.313664
 20
248.677798
 30
0.0
  0
SPLINE
  5
120
100
AcDbEntity
  8
Layer_1
 62
7
100
AcDbSpline
 70
8
 71
3
 72
8
 73
4
 74
0
 40
0
 40
0
 40
0
 40
0
 40
1
 40
1
 40
1
 40
1
 10
37.313664
 20
248.677798
 30
0.0
 10
37.268446
 20
248.534064
 30
0.0
 10
37.285494
 20
248.382942
 30
0.0
 10
37.364808
 20
248.224431
 30
0.0
  0
SPLINE
  5
121
100
AcDbEntity
  8
Layer_1
 62
7
100
AcDbSpline
 70
8
 71
3
 72
8
 73
4
 74
0
 40
0
 40
0
 40
0
 40
0
 40
1
 40
1
 40
1
 40
1
 10
37.364808
 20
248.224431
 30
0.0
 10
37.444517
 20
248.065121
 30
0.0
 10
37.555642
 20
247.960066
 30
0.0
 10
37.698182
 20
247.909265
 30
0.0
  0
SPLINE
  5
122
100
AcDbEntity
  8
Layer_1
 62
7
100
AcDbSpline
 70
8
 71
3
 72
8
 73
4
 74
0
 40
0
 40
0
 40
0
 40
0
 40
1
 40
1
 40
1
 40
1
 10
37.698182
 20
247.909265
 30
0.0
 10
37.840313
 20
247.859263
 30
0.0
 10
37.988233
 20
247.872717
 30
0.0
 10
38.141942
 20
247.949627
 30
0.0
  0
SPLINE
  5
123
100
AcDbEntity
  8
Layer_1
 62
7
100
AcDbSpline
 70
8
 71
3
 72
8
 73
4
 74
0
 40
0
 40
0
 40
0
 40
0
 40
1
 40
1
 40
1
 40
1
 10
38.141942
 20
247.949627
 30
0.0
 10
38.294845
 20
248.026138
 30
0.0
 10
38.394296
 20
248.136461
 30
0.0
 10
38.440293
 20
248.280596
 30
0.0
  0
SPLINE
  5
124
100
AcDbEntity
  8
Layer_1
 62
7
100
AcDbSpline
 70
8
 71
3
 72
8
 73
4
 74
0
 40
0
 40
0
 40
0
 40
0
 40
1
 40
1
 40
1
 40
1
 10
38.440293
 20
248.280596
 30
0.0
 10
38.485123
 20
248.425130
 30
0.0
 10
38.467653
 20
248.577053
 30
0.0
 10
38.387884
 20
248.736365
 30
0.0
  0
LINE
  5
125
100
AcDbEntity
  8
Layer_1
 62
7
100
AcDbLine
 10
38.387884
 20
248.736365
 30
0.0
 11
38.387954
 21
248.736364
 31
0.0
  0
LINE
  5
126
100
AcDbEntity
  8
Layer_1
 62
7
100
AcDbLine
 10
36.070653
 20
251.715851
 30
0.0
 11
36.411142
 21
251.763078
 31
0.0
  0
LINE
  5
127
100
AcDbEntity
  8
Layer_1
 62
7
100
AcDbLine
 10
36.411142
 20
251.763078
 30
0.0
 11
36.504482
 21
251.090077
 31
0.0
  0
LINE
  5
128
100
AcDbEntity
  8
Layer_1
 62
7
100
AcDbLine
 10
36.504482
 20
251.090077
 30
0.0
 11
38.022066
 21
251.300556
 31
0.0
  0
LINE
  5
129
100
AcDbEntity
  8
Layer_1
 62
7
100
AcDbLine
 10
38.022066
 20
251.300556
 30
0.0
 11
38.086274
 21
250.837702
 31
0.0
  0
LINE
  5
12a
100
AcDbEntity
  8
Layer_1
 62
7
100
AcDbLine
 10
38.086274
 20
250.837702
 30
0.0
 11
36.568700
 21
250.627222
 31
0.0
  0
LINE
  5
12b
100
AcDbEntity
  8
Layer_1
 62
7
100
AcDbLine
 10
36.568700
 20
250.627222
 30
0.0
 11
36.662039
 21
249.954222
 31
0.0
  0
LINE
  5
12c
100
AcDbEntity
  8
Layer_1
 62
7
100
AcDbLine
 10
36.662039
 20
249.954222
 30
0.0
 11
36.321550
 21
249.906994
 31
0.0
  0
LINE
  5
12d
100
AcDbEntity
  8
Layer_1
 62
7
100
AcDbLine
 10
36.321550
 20
249.906994
 30
0.0
 11
36.070653
 21
251.715851
 31
0.0
  0
LINE
  5
12e
100
AcDbEntity
  8
Layer_1
 62
7
100
AcDbLine
 10
36.258660
 20
253.592351
 30
0.0
 11
38.244486
 21
254.110441
 31
0.0
  0
LINE
  5
12f
100
AcDbEntity
  8
Layer_1
 62
7
100
AcDbLine
 10
38.244486
 20
254.110441
 30
0.0
 11
38.163205
 21
253.614859
 31
0.0
  0
LINE
  5
130
100
AcDbEntity
  8
Layer_1
 62
7
100
AcDbLine
 10
38.163205
 20
253.614859
 30
0.0
 11
37.772496
 21
253.522424
 31
0.0
  0
LINE
  5
131
100
AcDbEntity
  8
Layer_1
 62
7
100
AcDbLine
 10
37.772496
 20
253.522424
 30
0.0
 11
37.636736
 21
252.694246
 31
0.0
  0
LINE
  5
132
100
AcDbEntity
  8
Layer_1
 62
7
100
AcDbLine
 10
37.636736
 20
252.694246
 30
0.0
 11
37.979860
 21
252.496483
 31
0.0
  0
LINE
  5
133
100
AcDbEntity
  8
Layer_1
 62
7
100
AcDbLine
 10
37.979860
 20
252.496483
 30
0.0
 11
37.899675
 21
252.007526
 31
0.0
  0
LINE
  5
134
100
AcDbEntity
  8
Layer_1
 62
7
100
AcDbLine
 10
37.899675
 20
252.007526
 30
0.0
 11
36.170833
 21
253.057013
 31
0.0
  0
LINE
  5
135
100
AcDbEntity
  8
Layer_1
 62
7
100
AcDbLine
 10
36.170833
 20
253.057013
 30
0.0
 11
36.258660
 21
253.592351
 31
0.0
  0
LINE
  5
136
100
AcDbEntity
  8
Layer_1
 62
7
100
AcDbLine
 10
37.426842
 20
253.438947
 30
0.0
 11
36.658444
 21
253.258756
 31
0.0
  0
LINE
  5
137
100
AcDbEntity
  8
Layer_1
 62
7
100
AcDbLine
 10
36.658444
 20
253.258756
 30
0.0
 11
37.333436
 21
252.869160
 31
0.0
  0
LINE
  5
138
100
AcDbEntity
  8
Layer_1
 62
7
100
AcDbLine
 10
37.333436
 20
252.869160
 30
0.0
 11
37.426842
 21
253.438947
 31
0.0
  0
LINE
  5
139
100
AcDbEntity
  8
Layer_1
 62
7
100
AcDbLine
 10
36.768375
 20
255.406921
 30
0.0
 11
37.144957
 21
256.155418
 31
0.0
  0
SPLINE
  5
13a
100
AcDbEntity
  8
Layer_1
 62
7
100
AcDbSpline
 70
8
 71
3
 72
8
 73
4
 74
0
 40
0
 40
0
 40
0
 40
0
 40
1
 40
1
 40
1
 40
1
 10
37.144957
 20
256.155418
 30
0.0
 10
37.226628
 20
256.317753
 30
0.0
 10
37.340193
 20
256.425962
 30
0.0
 10
37.485651
 20
256.480046
 30
0.0
  0
SPLINE
  5
13b
100
AcDbEntity
  8
Layer_1
 62
7
100
AcDbSpline
 70
8
 71
3
 72
8
 73
4
 74
0
 40
0
 40
0
 40
0
 40
0
 40
1
 40
1
 40
1
 40
1
 10
37.485651
 20
256.480046
 30
0.0
 10
37.630308
 20
256.534531
 30
0.0
 10
37.769411
 20
256.528181
 30
0.0
 10
37.902959
 20
256.460994
 30
0.0
  0
SPLINE
  5
13c
100
AcDbEntity
  8
Layer_1
 62
7
100
AcDbSpline
 70
8
 71
3
 72
8
 73
4
 74
0
 40
0
 40
0
 40
0
 40
0
 40
1
 40
1
 40
1
 40
1
 10
37.902959
 20
256.460994
 30
0.0
 10
38.087680
 20
256.368056
 30
0.0
 10
38.176144
 20
256.203297
 30
0.0
 10
38.168353
 20
255.966716
 30
0.0
  0
SPLINE
  5
13d
100
AcDbEntity
  8
Layer_1
 62
7
100
AcDbSpline
 70
8
 71
3
 72
8
 73
4
 74
0
 40
0
 40
0
 40
0
 40
0
 40
1
 40
1
 40
1
 40
1
 10
38.168353
 20
255.966716
 30
0.0
 10
38.248581
 20
256.032572
 30
0.0
 10
38.391572
 20
256.060839
 30
0.0
 10
38.597325
 20
256.051517
 30
0.0
  0
SPLINE
  5
13e
100
AcDbEntity
  8
Layer_1
 62
7
100
AcDbSpline
 70
8
 71
3
 72
8
 73
4
 74
0
 40
0
 40
0
 40
0
 40
0
 40
1
 40
1
 40
1
 40
1
 10
38.597325
 20
256.051517
 30
0.0
 10
38.803477
 20
256.042999
 30
0.0
 10
38.998627
 20
256.036508
 30
0.0
 10
39.182774
 20
256.032042
 30
0.0
  0
LINE
  5
13f
100
AcDbEntity
  8
Layer_1
 62
7
100
AcDbLine
 10
39.182774
 20
256.032042
 30
0.0
 11
38.951631
 21
255.572628
 31
0.0
  0
SPLINE
  5
140
100
AcDbEntity
  8
Layer_1
 62
7
100
AcDbSpline
 70
8
 71
3
 72
8
 73
4
 74
0
 40
0
 40
0
 40
0
 40
0
 40
1
 40
1
 40
1
 40
1
 10
38.951631
 20
255.572628
 30
0.0
 10
38.882772
 20
255.573200
 30
0.0
 10
38.753676
 20
255.578526
 30
0.0
 10
38.564342
 20
255.588605
 30
0.0
  0
SPLINE
  5
141
100
AcDbEntity
  8
Layer_1
 62
7
100
AcDbSpline
 70
8
 71
3
 72
8
 73
4
 74
0
 40
0
 40
0
 40
0
 40
0
 40
1
 40
1
 40
1
 40
1
 10
38.564342
 20
255.588605
 30
0.0
 10
38.375413
 20
255.599487
 30
0.0
 10
38.246686
 20
255.591599
 30
0.0
 10
38.178159
 20
255.564942
 30
0.0
  0
SPLINE
  5
142
100
AcDbEntity
  8
Layer_1
 62
7
100
AcDbSpline
 70
8
 71
3
 72
8
 73
4
 74
0
 40
0
 40
0
 40
0
 40
0
 40
1
 40
1
 40
1
 40
1
 10
38.178159
 20
255.564942
 30
0.0
 10
38.110038
 20
255.539091
 30
0.0
 10
38.062097
 20
255.498576
 30
0.0
 10
38.034335
 20
255.443396
 30
0.0
  0
LINE
  5
143
100
AcDbEntity
  8
Layer_1
 62
7
100
AcDbLine
 10
38.034335
 20
255.443396
 30
0.0
 11
37.973993
 21
255.323445
 31
0.0
  0
LINE
  5
144
100
AcDbEntity
  8
Layer_1
 62
7
100
AcDbLine
 10
37.973993
 20
255.323445
 30
0.0
 11
38.654122
 21
254.981264
 31
0.0
  0
LINE
  5
145
100
AcDbEntity
  8
Layer_1
 62
7
100
AcDbLine
 10
38.654122
 20
254.981264
 30
0.0
 11
38.444108
 21
254.563833
 31
0.0
  0
LINE
  5
146
100
AcDbEntity
  8
Layer_1
 62
7
100
AcDbLine
 10
38.444108
 20
254.563833
 30
0.0
 11
36.768375
 21
255.406921
 31
0.0
  0
LINE
  5
147
100
AcDbEntity
  8
Layer_1
 62
7
100
AcDbLine
 10
37.285464
 20
255.669857
 30
0.0
 11
37.666907
 21
255.477947
 31
0.0
  0
LINE
  5
148
100
AcDbEntity
  8
Layer_1
 62
7
100
AcDbLine
 10
37.666907
 20
255.477947
 30
0.0
 11
37.777953
 21
255.698658
 31
0.0
  0
SPLINE
  5
149
100
AcDbEntity
  8
Layer_1
 62
7
100
AcDbSpline
 70
8
 71
3
 72
8
 73
4
 74
0
 40
0
 40
0
 40
0
 40
0
 40
1
 40
1
 40
1
 40
1
 10
37.777953
 20
255.698658
 30
0.0
 10
37.813375
 20
255.769028
 30
0.0
 10
37.824933
 20
255.832854
 30
0.0
 10
37.812628
 20
255.890134
 30
0.0
  0
SPLINE
  5
14a
100
AcDbEntity
  8
Layer_1
 62
7
100
AcDbSpline
 70
8
 71
3
 72
8
 73
4
 74
0
 40
0
 40
0
 40
0
 40
0
 40
1
 40
1
 40
1
 40
1
 10
37.812628
 20
255.890134
 30
0.0
 10
37.799939
 20
255.948617
 30
0.0
 10
37.762819
 20
255.993347
 30
0.0
 10
37.701268
 20
256.024323
 30
0.0
  0
SPLINE
  5
14b
100
AcDbEntity
  8
Layer_1
 62
7
100
AcDbSpline
 70
8
 71
3
 72
8
 73
4
 74
0
 40
0
 40
0
 40
0
 40
0
 40
1
 40
1
 40
1
 40
1
 10
37.701268
 20
256.024323
 30
0.0
 10
37.574921
 20
256.087892
 30
0.0
 10
37.471716
 20
256.040108
 30
0.0
 10
37.391651
 20
255.880972
 30
0.0
  0
LINE
  5
14c
100
AcDbEntity
  8
Layer_1
 62
7
100
AcDbLine
 10
37.391651
 20
255.880972
 30
0.0
 11
37.285464
 21
255.669857
 31
0.0
  0
LINE
  5
14d
100
AcDbEntity
  8
Layer_1
 62
7
100
AcDbLine
 10
39.691316
 20
256.584036
 30
0.0
 11
39.053081
 21
257.185280
 31
0.0
  0
LINE
  5
14e
100
AcDbEntity
  8
Layer_1
 62
7
100
AcDbLine
 10
39.053081
 20
257.185280
 30
0.0
 11
37.818582
 21
257.331774
 31
0.0
  0
LINE
  5
14f
100
AcDbEntity
  8
Layer_1
 62
7
100
AcDbLine
 10
37.818582
 20
257.331774
 30
0.0
 11
38.207132
 21
257.744229
 31
0.0
  0
LINE
  5
150
100
AcDbEntity
  8
Layer_1
 62
7
100
AcDbLine
 10
38.207132
 20
257.744229
 30
0.0
 11
38.915192
 21
257.636170
 31
0.0
  0
LINE
  5
151
100
AcDbEntity
  8
Layer_1
 62
7
100
AcDbLine
 10
38.915192
 20
257.636170
 30
0.0
 11
38.766951
 21
258.338477
 31
0.0
  0
LINE
  5
152
100
AcDbEntity
  8
Layer_1
 62
7
100
AcDbLine
 10
38.766951
 20
258.338477
 30
0.0
 11
39.153663
 21
258.748978
 31
0.0
  0
LINE
  5
153
100
AcDbEntity
  8
Layer_1
 62
7
100
AcDbLine
 10
39.153663
 20
258.748978
 30
0.0
 11
39.373507
 21
257.525409
 31
0.0
  0
LINE
  5
154
100
AcDbEntity
  8
Layer_1
 62
7
100
AcDbLine
 10
39.373507
 20
257.525409
 30
0.0
 11
40.011732
 21
256.924165
 31
0.0
  0
LINE
  5
155
100
AcDbEntity
  8
Layer_1
 62
7
100
AcDbLine
 10
40.011732
 20
256.924165
 30
0.0
 11
39.691316
 21
256.584036
 31
0.0
  0
LINE
  5
156
100
AcDbEntity
  8
Layer_1
 62
7
100
AcDbLine
 10
43.239781
 20
259.429011
 30
0.0
 11
43.380480
 21
259.044393
 31
0.0
  0
SPLINE
  5
157
100
AcDbEntity
  8
Layer_1
 62
7
100
AcDbSpline
 70
8
 71
3
 72
8
 73
4
 74
0
 40
0
 40
0
 40
0
 40
0
 40
1
 40
1
 40
1
 40
1
 10
43.380480
 20
259.044393
 30
0.0
 10
43.202964
 20
258.846961
 30
0.0
 10
42.993568
 20
258.704113
 30
0.0
 10
42.752292
 20
258.615849
 30
0.0
  0
SPLINE
  5
158
100
AcDbEntity
  8
Layer_1
 62
7
100
AcDbSpline
 70
8
 71
3
 72
8
 73
4
 74
0
 40
0
 40
0
 40
0
 40
0
 40
1
 40
1
 40
1
 40
1
 10
42.752292
 20
258.615849
 30
0.0
 10
42.439550
 20
258.501444
 30
0.0
 10
42.158758
 20
258.496430
 30
0.0
 10
41.909916
 20
258.600808
 30
0.0
  0
SPLINE
  5
159
100
AcDbEntity
  8
Layer_1
 62
7
100
AcDbSpline
 70
8
 71
3
 72
8
 73
4
 74
0
 40
0
 40
0
 40
0
 40
0
 40
1
 40
1
 40
1
 40
1
 10
41.909916
 20
258.600808
 30
0.0
 10
41.661611
 20
258.706333
 30
0.0
 10
41.491174
 20
258.885621
 30
0.0
 10
41.398607
 20
259.138671
 30
0.0
  0
SPLINE
  5
15a
100
AcDbEntity
  8
Layer_1
 62
7
100
AcDbSpline
 70
8
 71
3
 72
8
 73
4
 74
0
 40
0
 40
0
 40
0
 40
0
 40
1
 40
1
 40
1
 40
1
 10
41.398607
 20
259.138671
 30
0.0
 10
41.306040
 20
259.391720
 30
0.0
 10
41.325000
 20
259.642192
 30
0.0
 10
41.455488
 20
259.890087
 30
0.0
  0
SPLINE
  5
15b
100
AcDbEntity
  8
Layer_1
 62
7
100
AcDbSpline
 70
8
 71
3
 72
8
 73
4
 74
0
 40
0
 40
0
 40
0
 40
0
 40
1
 40
1
 40
1
 40
1
 10
41.455488
 20
259.890087
 30
0.0
 10
41.586787
 20
260.138290
 30
0.0
 10
41.810068
 20
260.320055
 30
0.0
 10
42.125330
 20
260.435383
 30
0.0
  0
SPLINE
  5
15c
100
AcDbEntity
  8
Layer_1
 62
7
100
AcDbSpline
 70
8
 71
3
 72
8
 73
4
 74
0
 40
0
 40
0
 40
0
 40
0
 40
1
 40
1
 40
1
 40
1
 10
42.125330
 20
260.435383
 30
0.0
 10
42.376700
 20
260.527337
 30
0.0
 10
42.608309
 20
260.553441
 30
0.0
 10
42.820156
 20
260.513695
 30
0.0
  0
LINE
  5
15d
100
AcDbEntity
  8
Layer_1
 62
7
100
AcDbLine
 10
42.820156
 20
260.513695
 30
0.0
 11
42.963625
 21
260.121510
 31
0.0
  0
SPLINE
  5
15e
100
AcDbEntity
  8
Layer_1
 62
7
100
AcDbSpline
 70
8
 71
3
 72
8
 73
4
 74
0
 40
0
 40
0
 40
0
 40
0
 40
1
 40
1
 40
1
 40
1
 10
42.963625
 20
260.121510
 30
0.0
 10
42.706107
 20
260.163615
 30
0.0
 10
42.481930
 20
260.149761
 30
0.0
 10
42.291093
 20
260.079949
 30
0.0
  0
SPLINE
  5
15f
100
AcDbEntity
  8
Layer_1
 62
7
100
AcDbSpline
 70
8
 71
3
 72
8
 73
4
 74
0
 40
0
 40
0
 40
0
 40
0
 40
1
 40
1
 40
1
 40
1
 10
42.291093
 20
260.079949
 30
0.0
 10
42.103621
 20
260.011368
 30
0.0
 10
41.968648
 20
259.904800
 30
0.0
 10
41.886174
 20
259.760246
 30
0.0
  0
SPLINE
  5
160
100
AcDbEntity
  8
Layer_1
 62
7
100
AcDbSpline
 70
8
 71
3
 72
8
 73
4
 74
0
 40
0
 40
0
 40
0
 40
0
 40
1
 40
1
 40
1
 40
1
 10
41.886174
 20
259.760246
 30
0.0
 10
41.804230
 20
259.616841
 30
0.0
 10
41.791699
 20
259.467373
 30
0.0
 10
41.848580
 20
259.311844
 30
0.0
  0
SPLINE
  5
161
100
AcDbEntity
  8
Layer_1
 62
7
100
AcDbSpline
 70
8
 71
3
 72
8
 73
4
 74
0
 40
0
 40
0
 40
0
 40
0
 40
1
 40
1
 40
1
 40
1
 10
41.848580
 20
259.311844
 30
0.0
 10
41.905790
 20
259.155475
 30
0.0
 10
42.011426
 20
259.047802
 30
0.0
 10
42.165488
 20
258.988826
 30
0.0
  0
SPLINE
  5
162
100
AcDbEntity
  8
Layer_1
 62
7
100
AcDbSpline
 70
8
 71
3
 72
8
 73
4
 74
0
 40
0
 40
0
 40
0
 40
0
 40
1
 40
1
 40
1
 40
1
 10
42.165488
 20
258.988826
 30
0.0
 10
42.320402
 20
258.930158
 30
0.0
 10
42.489494
 20
258.934345
 30
0.0
 10
42.672763
 20
259.001386
 30
0.0
  0
SPLINE
  5
163
100
AcDbEntity
  8
Layer_1
 62
7
100
AcDbSpline
 70
8
 71
3
 72
8
 73
4
 74
0
 40
0
 40
0
 40
0
 40
0
 40
1
 40
1
 40
1
 40
1
 10
42.672763
 20
259.001386
 30
0.0
 10
42.763560
 20
259.034602
 30
0.0
 10
42.846685
 20
259.078356
 30
0.0
 10
42.922139
 20
259.132649
 30
0.0
  0
SPLINE
  5
164
100
AcDbEntity
  8
Layer_1
 62
7
100
AcDbSpline
 70
8
 71
3
 72
8
 73
4
 74
0
 40
0
 40
0
 40
0
 40
0
 40
1
 40
1
 40
1
 40
1
 10
42.922139
 20
259.132649
 30
0.0
 10
42.997291
 20
259.187780
 30
0.0
 10
43.103182
 20
259.286567
 30
0.0
 10
43.239811
 20
259.429010
 30
0.0
  0
LINE
  5
165
100
AcDbEntity
  8
Layer_1
 62
7
100
AcDbLine
 10
43.239811
 20
259.429010
 30
0.0
 11
43.239781
 21
259.429011
 31
0.0
  0
LINE
  5
166
100
AcDbEntity
  8
Layer_1
 62
7
100
AcDbLine
 10
45.453545
 20
259.373217
 30
0.0
 11
45.466075
 21
259.029695
 31
0.0
  0
LINE
  5
167
100
AcDbEntity
  8
Layer_1
 62
7
100
AcDbLine
 10
45.466075
 20
259.029695
 30
0.0
 11
44.083940
 21
258.979253
 31
0.0
  0
LINE
  5
168
100
AcDbEntity
  8
Layer_1
 62
7
100
AcDbLine
 10
44.083940
 20
258.979253
 30
0.0
 11
44.015564
 21
260.853859
 31
0.0
  0
LINE
  5
169
100
AcDbEntity
  8
Layer_1
 62
7
100
AcDbLine
 10
44.015564
 20
260.853859
 30
0.0
 11
45.378916
 21
260.903613
 31
0.0
  0
LINE
  5
16a
100
AcDbEntity
  8
Layer_1
 62
7
100
AcDbLine
 10
45.378916
 20
260.903613
 30
0.0
 11
45.391446
 21
260.560091
 31
0.0
  0
LINE
  5
16b
100
AcDbEntity
  8
Layer_1
 62
7
100
AcDbLine
 10
45.391446
 20
260.560091
 30
0.0
 11
44.495069
 21
260.527381
 31
0.0
  0
LINE
  5
16c
100
AcDbEntity
  8
Layer_1
 62
7
100
AcDbLine
 10
44.495069
 20
260.527381
 30
0.0
 11
44.509380
 21
260.134211
 31
0.0
  0
LINE
  5
16d
100
AcDbEntity
  8
Layer_1
 62
7
100
AcDbLine
 10
44.509380
 20
260.134211
 30
0.0
 11
45.364151
 21
260.165403
 31
0.0
  0
LINE
  5
16e
100
AcDbEntity
  8
Layer_1
 62
7
100
AcDbLine
 10
45.364151
 20
260.165403
 30
0.0
 11
45.376680
 21
259.821882
 31
0.0
  0
LINE
  5
16f
100
AcDbEntity
  8
Layer_1
 62
7
100
AcDbLine
 10
45.376680
 20
259.821882
 30
0.0
 11
44.521900
 21
259.790690
 31
0.0
  0
LINE
  5
170
100
AcDbEntity
  8
Layer_1
 62
7
100
AcDbLine
 10
44.521900
 20
259.790690
 30
0.0
 11
44.538376
 21
259.339818
 31
0.0
  0
LINE
  5
171
100
AcDbEntity
  8
Layer_1
 62
7
100
AcDbLine
 10
44.538376
 20
259.339818
 30
0.0
 11
45.453545
 21
259.373217
 31
0.0
  0
LINE
  5
172
100
AcDbEntity
  8
Layer_1
 62
7
100
AcDbLine
 10
47.561421
 20
258.939023
 30
0.0
 11
47.477987
 21
258.605562
 31
0.0
  0
LINE
  5
173
100
AcDbEntity
  8
Layer_1
 62
7
100
AcDbLine
 10
47.477987
 20
258.605562
 30
0.0
 11
46.090748
 21
258.952851
 31
0.0
  0
LINE
  5
174
100
AcDbEntity
  8
Layer_1
 62
7
100
AcDbLine
 10
46.090748
 20
258.952851
 30
0.0
 11
46.546301
 21
260.772549
 31
0.0
  0
LINE
  5
175
100
AcDbEntity
  8
Layer_1
 62
7
100
AcDbLine
 10
46.546301
 20
260.772549
 30
0.0
 11
46.999596
 21
260.659070
 31
0.0
  0
LINE
  5
176
100
AcDbEntity
  8
Layer_1
 62
7
100
AcDbLine
 10
46.999596
 20
260.659070
 30
0.0
 11
46.627528
 21
259.172830
 31
0.0
  0
LINE
  5
177
100
AcDbEntity
  8
Layer_1
 62
7
100
AcDbLine
 10
46.627528
 20
259.172830
 30
0.0
 11
47.561421
 21
258.939023
 31
0.0
  0
LINE
  5
178
100
AcDbEntity
  8
Layer_1
 62
7
100
AcDbLine
 10
49.373699
 20
257.963265
 30
0.0
 11
49.201098
 21
257.665987
 31
0.0
  0
LINE
  5
179
100
AcDbEntity
  8
Layer_1
 62
7
100
AcDbLine
 10
49.201098
 20
257.665987
 30
0.0
 11
47.964381
 21
258.384018
 31
0.0
  0
LINE
  5
17a
100
AcDbEntity
  8
Layer_1
 62
7
100
AcDbLine
 10
47.964381
 20
258.384018
 30
0.0
 11
48.906248
 21
260.006274
 31
0.0
  0
LINE
  5
17b
100
AcDbEntity
  8
Layer_1
 62
7
100
AcDbLine
 10
48.906248
 20
260.006274
 30
0.0
 11
49.310354
 21
259.771650
 31
0.0
  0
LINE
  5
17c
100
AcDbEntity
  8
Layer_1
 62
7
100
AcDbLine
 10
49.310354
 20
259.771650
 30
0.0
 11
48.541088
 21
258.446672
 31
0.0
  0
LINE
  5
17d
100
AcDbEntity
  8
Layer_1
 62
7
100
AcDbLine
 10
48.541088
 20
258.446672
 30
0.0
 11
49.373699
 21
257.963265
 31
0.0
  0
LINE
  5
17e
100
AcDbEntity
  8
Layer_1
 62
7
100
AcDbLine
 10
51.886022
 20
257.653741
 30
0.0
 11
52.366875
 21
256.969203
 31
0.0
  0
SPLINE
  5
17f
100
AcDbEntity
  8
Layer_1
 62
7
100
AcDbSpline
 70
8
 71
3
 72
8
 73
4
 74
0
 40
0
 40
0
 40
0
 40
0
 40
1
 40
1
 40
1
 40
1
 10
52.366875
 20
256.969203
 30
0.0
 10
52.475965
 20
256.813909
 30
0.0
 10
52.517619
 20
256.658834
 30
0.0
 10
52.491835
 20
256.503979
 30
0.0
  0
SPLINE
  5
180
100
AcDbEntity
  8
Layer_1
 62
7
100
AcDbSpline
 70
8
 71
3
 72
8
 73
4
 74
0
 40
0
 40
0
 40
0
 40
0
 40
1
 40
1
 40
1
 40
1
 10
52.491835
 20
256.503979
 30
0.0
 10
52.466058
 20
256.349124
 30
0.0
 10
52.391637
 20
256.228474
 30
0.0
 10
52.268573
 20
256.142029
 30
0.0
  0
SPLINE
  5
181
100
AcDbEntity
  8
Layer_1
 62
7
100
AcDbSpline
 70
8
 71
3
 72
8
 73
4
 74
0
 40
0
 40
0
 40
0
 40
0
 40
1
 40
1
 40
1
 40
1
 10
52.268573
 20
256.142029
 30
0.0
 10
52.141111
 20
256.052496
 30
0.0
 10
52.000064
 20
256.021244
 30
0.0
 10
51.845432
 20
256.048273
 30
0.0
  0
SPLINE
  5
182
100
AcDbEntity
  8
Layer_1
 62
7
100
AcDbSpline
 70
8
 71
3
 72
8
 73
4
 74
0
 40
0
 40
0
 40
0
 40
0
 40
1
 40
1
 40
1
 40
1
 10
51.845432
 20
256.048273
 30
0.0
 10
51.691303
 20
256.074566
 30
0.0
 10
51.559439
 20
256.165727
 30
0.0
 10
51.449839
 20
256.321755
 30
0.0
  0
LINE
  5
183
100
AcDbEntity
  8
Layer_1
 62
7
100
AcDbLine
 10
51.449839
 20
256.321755
 30
0.0
 11
51.236041
 21
256.626117
 31
0.0
  0
LINE
  5
184
100
AcDbEntity
  8
Layer_1
 62
7
100
AcDbLine
 10
51.236041
 20
256.626117
 30
0.0
 11
50.619630
 21
256.193118
 31
0.0
  0
LINE
  5
185
100
AcDbEntity
  8
Layer_1
 62
7
100
AcDbLine
 10
50.619630
 20
256.193118
 30
0.0
 11
50.351036
 21
256.575493
 31
0.0
  0
LINE
  5
186
100
AcDbEntity
  8
Layer_1
 62
7
100
AcDbLine
 10
50.351036
 20
256.575493
 30
0.0
 11
51.886022
 21
257.653741
 31
0.0
  0
LINE
  5
187
100
AcDbEntity
  8
Layer_1
 62
7
100
AcDbLine
 10
51.873627
 20
257.073773
 30
0.0
 11
51.517620
 21
256.823699
 31
0.0
  0
LINE
  5
188
100
AcDbEntity
  8
Layer_1
 62
7
100
AcDbLine
 10
51.517620
 20
256.823699
 30
0.0
 11
51.642657
 21
256.645697
 31
0.0
  0
SPLINE
  5
189
100
AcDbEntity
  8
Layer_1
 62
7
100
AcDbSpline
 70
8
 71
3
 72
8
 73
4
 74
0
 40
0
 40
0
 40
0
 40
0
 40
1
 40
1
 40
1
 40
1
 10
51.642657
 20
256.645697
 30
0.0
 10
51.754315
 20
256.486741
 30
0.0
 10
51.869480
 20
256.448941
 30
0.0
 10
51.988152
 20
256.532299
 30
0.0
  0
SPLINE
  5
18a
100
AcDbEntity
  8
Layer_1
 62
7
100
AcDbSpline
 70
8
 71
3
 72
8
 73
4
 74
0
 40
0
 40
0
 40
0
 40
0
 40
1
 40
1
 40
1
 40
1
 10
51.988152
 20
256.532299
 30
0.0
 10
52.054837
 20
256.579125
 30
0.0
 10
52.086050
 20
256.632786
 30
0.0
 10
52.081792
 20
256.693280
 30
0.0
  0
SPLINE
  5
18b
100
AcDbEntity
  8
Layer_1
 62
7
100
AcDbSpline
 70
8
 71
3
 72
8
 73
4
 74
0
 40
0
 40
0
 40
0
 40
0
 40
1
 40
1
 40
1
 40
1
 10
52.081792
 20
256.693280
 30
0.0
 10
52.078008
 20
256.754294
 30
0.0
 10
52.040251
 20
256.836076
 30
0.0
 10
51.968521
 20
256.938625
 30
0.0
  0
LINE
  5
18c
100
AcDbEntity
  8
Layer_1
 62
7
100
AcDbLine
 10
51.968521
 20
256.938625
 30
0.0
 11
51.873627
 21
257.073773
 31
0.0
  0
LINE
  5
18d
100
AcDbEntity
  8
Layer_1
 62
7
100
AcDbLine
 10
53.795502
 20
253.571602
 30
0.0
 11
51.993472
 21
253.050505
 31
0.0
  0
LINE
  5
18e
100
AcDbEntity
  8
Layer_1
 62
7
100
AcDbLine
 10
51.993472
 20
253.050505
 30
0.0
 11
51.863665
 21
253.499399
 31
0.0
  0
LINE
  5
18f
100
AcDbEntity
  8
Layer_1
 62
7
100
AcDbLine
 10
51.863665
 20
253.499399
 30
0.0
 11
52.592471
 21
253.710150
 31
0.0
  0
LINE
  5
190
100
AcDbEntity
  8
Layer_1
 62
7
100
AcDbLine
 10
52.592471
 20
253.710150
 30
0.0
 11
52.332858
 21
254.607936
 31
0.0
  0
LINE
  5
191
100
AcDbEntity
  8
Layer_1
 62
7
100
AcDbLine
 10
52.332858
 20
254.607936
 30
0.0
 11
51.604051
 21
254.397185
 31
0.0
  0
LINE
  5
192
100
AcDbEntity
  8
Layer_1
 62
7
100
AcDbLine
 10
51.604051
 20
254.397185
 30
0.0
 11
51.474245
 21
254.846078
 31
0.0
  0
LINE
  5
193
100
AcDbEntity
  8
Layer_1
 62
7
100
AcDbLine
 10
51.474245
 20
254.846078
 30
0.0
 11
53.276264
 21
255.367175
 31
0.0
  0
LINE
  5
194
100
AcDbEntity
  8
Layer_1
 62
7
100
AcDbLine
 10
53.276264
 20
255.367175
 30
0.0
 11
53.406071
 21
254.918282
 31
0.0
  0
LINE
  5
195
100
AcDbEntity
  8
Layer_1
 62
7
100
AcDbLine
 10
53.406071
 20
254.918282
 30
0.0
 11
52.682427
 21
254.709023
 31
0.0
  0
LINE
  5
196
100
AcDbEntity
  8
Layer_1
 62
7
100
AcDbLine
 10
52.682427
 20
254.709023
 30
0.0
 11
52.942041
 21
253.811237
 31
0.0
  0
LINE
  5
197
100
AcDbEntity
  8
Layer_1
 62
7
100
AcDbLine
 10
52.942041
 20
253.811237
 30
0.0
 11
53.665695
 21
254.020495
 31
0.0
  0
LINE
  5
198
100
AcDbEntity
  8
Layer_1
 62
7
100
AcDbLine
 10
53.665695
 20
254.020495
 30
0.0
 11
53.795502
 21
253.571602
 31
0.0
  0
SPLINE
  5
199
100
AcDbEntity
  8
Layer_1
 62
7
100
AcDbSpline
 70
8
 71
3
 72
8
 73
4
 74
0
 40
0
 40
0
 40
0
 40
0
 40
1
 40
1
 40
1
 40
1
 10
53.871459
 20
251.189071
 30
0.0
 10
53.842516
 20
250.870802
 30
0.0
 10
53.722825
 20
250.621903
 30
0.0
 10
53.512384
 20
250.442373
 30
0.0
  0
SPLINE
  5
19a
100
AcDbEntity
  8
Layer_1
 62
7
100
AcDbSpline
 70
8
 71
3
 72
8
 73
4
 74
0
 40
0
 40
0
 40
0
 40
0
 40
1
 40
1
 40
1
 40
1
 10
53.512384
 20
250.442373
 30
0.0
 10
53.302816
 20
250.262762
 30
0.0
 10
53.070543
 20
250.184538
 30
0.0
 10
52.815565
 20
250.207702
 30
0.0
  0
SPLINE
  5
19b
100
AcDbEntity
  8
Layer_1
 62
7
100
AcDbSpline
 70
8
 71
3
 72
8
 73
4
 74
0
 40
0
 40
0
 40
0
 40
0
 40
1
 40
1
 40
1
 40
1
 10
52.815565
 20
250.207702
 30
0.0
 10
52.557031
 20
250.231186
 30
0.0
 10
52.341889
 20
250.351404
 30
0.0
 10
52.170137
 20
250.568357
 30
0.0
  0
SPLINE
  5
19c
100
AcDbEntity
  8
Layer_1
 62
7
100
AcDbSpline
 70
8
 71
3
 72
8
 73
4
 74
0
 40
0
 40
0
 40
0
 40
0
 40
1
 40
1
 40
1
 40
1
 10
52.170137
 20
250.568357
 30
0.0
 10
51.998386
 20
250.785307
 30
0.0
 10
51.926726
 20
251.050242
 30
0.0
 10
51.955158
 20
251.363162
 30
0.0
  0
SPLINE
  5
19d
100
AcDbEntity
  8
Layer_1
 62
7
100
AcDbSpline
 70
8
 71
3
 72
8
 73
4
 74
0
 40
0
 40
0
 40
0
 40
0
 40
1
 40
1
 40
1
 40
1
 10
51.955158
 20
251.363162
 30
0.0
 10
51.983875
 20
251.679648
 30
0.0
 10
52.101781
 20
251.928710
 30
0.0
 10
52.308879
 20
252.110346
 30
0.0
  0
SPLINE
  5
19e
100
AcDbEntity
  8
Layer_1
 62
7
100
AcDbSpline
 70
8
 71
3
 72
8
 73
4
 74
0
 40
0
 40
0
 40
0
 40
0
 40
1
 40
1
 40
1
 40
1
 10
52.308879
 20
252.110346
 30
0.0
 10
52.515936
 20
252.291983
 30
0.0
 10
52.749627
 20
252.370977
 30
0.0
 10
53.009952
 20
252.347328
 30
0.0
  0
SPLINE
  5
19f
100
AcDbEntity
  8
Layer_1
 62
7
100
AcDbSpline
 70
8
 71
3
 72
8
 73
4
 74
0
 40
0
 40
0
 40
0
 40
0
 40
1
 40
1
 40
1
 40
1
 10
53.009952
 20
252.347328
 30
0.0
 10
53.265815
 20
252.324082
 30
0.0
 10
53.480634
 20
252.205242
 30
0.0
 10
53.654409
 20
251.990806
 30
0.0
  0
SPLINE
  5
1a0
100
AcDbEntity
  8
Layer_1
 62
7
100
AcDbSpline
 70
8
 71
3
 72
8
 73
4
 74
0
 40
0
 40
0
 40
0
 40
0
 40
1
 40
1
 40
1
 40
1
 10
53.654409
 20
251.990806
 30
0.0
 10
53.828104
 20
251.775477
 30
0.0
 10
53.900454
 20
251.508233
 30
0.0
 10
53.871459
 20
251.189071
 30
0.0
  0
LINE
  5
1a1
100
AcDbEntity
  8
Layer_1
 62
7
100
AcDbLine
 10
53.871459
 20
251.189071
 30
0.0
 11
53.871459
 21
251.189071
 31
0.0
  0
SPLINE
  5
1a2
100
AcDbEntity
  8
Layer_1
 62
7
100
AcDbSpline
 70
8
 71
3
 72
8
 73
4
 74
0
 40
0
 40
0
 40
0
 40
0
 40
1
 40
1
 40
1
 40
1
 10
52.342959
 20
251.327930
 30
0.0
 10
52.326935
 20
251.151411
 30
0.0
 10
52.366173
 20
251.004477
 30
0.0
 10
52.460671
 20
250.887129
 30
0.0
  0
SPLINE
  5
1a3
100
AcDbEntity
  8
Layer_1
 62
7
100
AcDbSpline
 70
8
 71
3
 72
8
 73
4
 74
0
 40
0
 40
0
 40
0
 40
0
 40
1
 40
1
 40
1
 40
1
 10
52.460671
 20
250.887129
 30
0.0
 10
52.556068
 20
250.769699
 30
0.0
 10
52.688907
 20
250.703250
 30
0.0
 10
52.859188
 20
250.687780
 30
0.0
  0
SPLINE
  5
1a4
100
AcDbEntity
  8
Layer_1
 62
7
100
AcDbSpline
 70
8
 71
3
 72
8
 73
4
 74
0
 40
0
 40
0
 40
0
 40
0
 40
1
 40
1
 40
1
 40
1
 10
52.859188
 20
250.687780
 30
0.0
 10
53.030354
 20
250.672228
 30
0.0
 10
53.172992
 20
250.713651
 30
0.0
 10
53.287101
 20
250.812050
 30
0.0
  0
SPLINE
  5
1a5
100
AcDbEntity
  8
Layer_1
 62
7
100
AcDbSpline
 70
8
 71
3
 72
8
 73
4
 74
0
 40
0
 40
0
 40
0
 40
0
 40
1
 40
1
 40
1
 40
1
 10
53.287101
 20
250.812050
 30
0.0
 10
53.401204
 20
250.910447
 30
0.0
 10
53.466273
 20
251.047905
 30
0.0
 10
53.482310
 20
251.224424
 30
0.0
  0
SPLINE
  5
1a6
100
AcDbEntity
  8
Layer_1
 62
7
100
AcDbSpline
 70
8
 71
3
 72
8
 73
4
 74
0
 40
0
 40
0
 40
0
 40
0
 40
1
 40
1
 40
1
 40
1
 10
53.482310
 20
251.224424
 30
0.0
 10
53.498412
 20
251.401835
 30
0.0
 10
53.459257
 20
251.549660
 30
0.0
 10
53.364846
 20
251.667901
 30
0.0
  0
SPLINE
  5
1a7
100
AcDbEntity
  8
Layer_1
 62
7
100
AcDbSpline
 70
8
 71
3
 72
8
 73
4
 74
0
 40
0
 40
0
 40
0
 40
0
 40
1
 40
1
 40
1
 40
1
 10
53.364846
 20
251.667901
 30
0.0
 10
53.270341
 20
251.785249
 30
0.0
 10
53.137505
 20
251.851699
 30
0.0
 10
52.966339
 20
251.867249
 30
0.0
  0
SPLINE
  5
1a8
100
AcDbEntity
  8
Layer_1
 62
7
100
AcDbSpline
 70
8
 71
3
 72
8
 73
4
 74
0
 40
0
 40
0
 40
0
 40
0
 40
1
 40
1
 40
1
 40
1
 10
52.966339
 20
251.867249
 30
0.0
 10
52.796058
 20
251.882715
 30
0.0
 10
52.653417
 20
251.841292
 30
0.0
 10
52.538416
 20
251.742979
 30
0.0
  0
SPLINE
  5
1a9
100
AcDbEntity
  8
Layer_1
 62
7
100
AcDbSpline
 70
8
 71
3
 72
8
 73
4
 74
0
 40
0
 40
0
 40
0
 40
0
 40
1
 40
1
 40
1
 40
1
 10
52.538416
 20
251.742979
 30
0.0
 10
52.424234
 20
251.643690
 30
0.0
 10
52.359081
 20
251.505341
 30
0.0
 10
52.342959
 20
251.327930
 30
0.0
  0
LINE
  5
1aa
100
AcDbEntity
  8
Layer_1
 62
7
100
AcDbLine
 10
52.342959
 20
251.327930
 30
0.0
 11
52.342959
 21
251.327930
 31
0.0
  0
LINE
  5
1ab
100
AcDbEntity
  8
Layer_1
 62
7
100
AcDbLine
 10
52.510126
 20
247.158649
 30
0.0
 11
50.834917
 21
248.002744
 31
0.0
  0
LINE
  5
1ac
100
AcDbEntity
  8
Layer_1
 62
7
100
AcDbLine
 10
50.834917
 20
248.002744
 30
0.0
 11
51.011950
 21
248.354095
 31
0.0
  0
LINE
  5
1ad
100
AcDbEntity
  8
Layer_1
 62
7
100
AcDbLine
 10
51.011950
 20
248.354095
 30
0.0
 11
52.551643
 21
248.739061
 31
0.0
  0
LINE
  5
1ae
100
AcDbEntity
  8
Layer_1
 62
7
100
AcDbLine
 10
52.551643
 20
248.739061
 30
0.0
 11
51.478407
 21
249.279838
 31
0.0
  0
LINE
  5
1af
100
AcDbEntity
  8
Layer_1
 62
7
100
AcDbLine
 10
51.478407
 20
249.279838
 30
0.0
 11
51.688678
 21
249.697141
 31
0.0
  0
LINE
  5
1b0
100
AcDbEntity
  8
Layer_1
 62
7
100
AcDbLine
 10
51.688678
 20
249.697141
 30
0.0
 11
53.363887
 21
248.853046
 31
0.0
  0
LINE
  5
1b1
100
AcDbEntity
  8
Layer_1
 62
7
100
AcDbLine
 10
53.363887
 20
248.853046
 30
0.0
 11
53.171141
 21
248.470518
 31
0.0
  0
LINE
  5
1b2
100
AcDbEntity
  8
Layer_1
 62
7
100
AcDbLine
 10
53.171141
 20
248.470518
 30
0.0
 11
51.696318
 21
248.091957
 31
0.0
  0
LINE
  5
1b3
100
AcDbEntity
  8
Layer_1
 62
7
100
AcDbLine
 10
51.696318
 20
248.091957
 30
0.0
 11
52.720387
 21
247.575953
 31
0.0
  0
LINE
  5
1b4
100
AcDbEntity
  8
Layer_1
 62
7
100
AcDbLine
 10
52.720387
 20
247.575953
 30
0.0
 11
52.510126
 21
247.158649
 31
0.0
  0
LINE
  5
1b5
100
AcDbEntity
  8
Layer_1
 62
7
100
AcDbLine
 10
49.635907
 20
246.248781
 30
0.0
 11
49.394971
 21
246.493971
 31
0.0
  0
LINE
  5
1b6
100
AcDbEntity
  8
Layer_1
 62
7
100
AcDbLine
 10
49.394971
 20
246.493971
 30
0.0
 11
50.381483
 21
247.463326
 31
0.0
  0
LINE
  5
1b7
100
AcDbEntity
  8
Layer_1
 62
7
100
AcDbLine
 10
50.381483
 20
247.463326
 30
0.0
 11
51.696226
 21
246.125316
 31
0.0
  0
LINE
  5
1b8
100
AcDbEntity
  8
Layer_1
 62
7
100
AcDbLine
 10
51.696226
 20
246.125316
 30
0.0
 11
50.723135
 21
245.169137
 31
0.0
  0
LINE
  5
1b9
100
AcDbEntity
  8
Layer_1
 62
7
100
AcDbLine
 10
50.723135
 20
245.169137
 30
0.0
 11
50.482199
 21
245.414328
 31
0.0
  0
LINE
  5
1ba
100
AcDbEntity
  8
Layer_1
 62
7
100
AcDbLine
 10
50.482199
 20
245.414328
 30
0.0
 11
51.121994
 21
246.042996
 31
0.0
  0
LINE
  5
1bb
100
AcDbEntity
  8
Layer_1
 62
7
100
AcDbLine
 10
51.121994
 20
246.042996
 30
0.0
 11
50.846247
 21
246.323624
 31
0.0
  0
LINE
  5
1bc
100
AcDbEntity
  8
Layer_1
 62
7
100
AcDbLine
 10
50.846247
 20
246.323624
 30
0.0
 11
50.236147
 21
245.724130
 31
0.0
  0
LINE
  5
1bd
100
AcDbEntity
  8
Layer_1
 62
7
100
AcDbLine
 10
50.236147
 20
245.724130
 30
0.0
 11
49.995220
 21
245.969319
 31
0.0
  0
LINE
  5
1be
100
AcDbEntity
  8
Layer_1
 62
7
100
AcDbLine
 10
49.995220
 20
245.969319
 30
0.0
 11
50.605320
 21
246.568814
 31
0.0
  0
LINE
  5
1bf
100
AcDbEntity
  8
Layer_1
 62
7
100
AcDbLine
 10
50.605320
 20
246.568814
 30
0.0
 11
50.289105
 21
246.890625
 31
0.0
  0
LINE
  5
1c0
100
AcDbEntity
  8
Layer_1
 62
7
100
AcDbLine
 10
50.289105
 20
246.890625
 30
0.0
 11
49.635907
 21
246.248781
 31
0.0
  0
SPLINE
  5
1c1
100
AcDbEntity
  8
Layer_1
 62
7
100
AcDbSpline
 70
8
 71
3
 72
8
 73
4
 74
0
 40
0
 40
0
 40
0
 40
0
 40
1
 40
1
 40
1
 40
1
 10
62.175934
 20
253.956974
 30
0.0
 10
60.345908
 20
253.956974
 30
0.0
 10
58.696078
 20
252.854593
 30
0.0
 10
57.995758
 20
251.163870
 30
0.0
  0
SPLINE
  5
1c2
100
AcDbEntity
  8
Layer_1
 62
7
100
AcDbSpline
 70
8
 71
3
 72
8
 73
4
 74
0
 40
0
 40
0
 40
0
 40
0
 40
1
 40
1
 40
1
 40
1
 10
57.995758
 20
251.163870
 30
0.0
 10
57.295437
 20
249.473146
 30
0.0
 10
57.682542
 20
247.527039
 30
0.0
 10
58.976566
 20
246.233016
 30
0.0
  0
SPLINE
  5
1c3
100
AcDbEntity
  8
Layer_1
 62
7
100
AcDbSpline
 70
8
 71
3
 72
8
 73
4
 74
0
 40
0
 40
0
 40
0
 40
0
 40
1
 40
1
 40
1
 40
1
 10
58.976566
 20
246.233016
 30
0.0
 10
60.270589
 20
244.938992
 30
0.0
 10
62.216696
 20
244.551887
 30
0.0
 10
63.907420
 20
245.252208
 30
0.0
  0
SPLINE
  5
1c4
100
AcDbEntity
  8
Layer_1
 62
7
100
AcDbSpline
 70
8
 71
3
 72
8
 73
4
 74
0
 40
0
 40
0
 40
0
 40
0
 40
1
 40
1
 40
1
 40
1
 10
63.907420
 20
245.252208
 30
0.0
 10
65.598143
 20
245.952528
 30
0.0
 10
66.700524
 20
247.602358
 30
0.0
 10
66.700524
 20
249.432384
 30
0.0
  0
SPLINE
  5
1c5
100
AcDbEntity
  8
Layer_1
 62
7
100
AcDbSpline
 70
8
 71
3
 72
8
 73
4
 74
0
 40
0
 40
0
 40
0
 40
0
 40
1
 40
1
 40
1
 40
1
 10
66.700524
 20
249.432384
 30
0.0
 10
66.700524
 20
250.632380
 30
0.0
 10
66.223827
 20
251.783227
 30
0.0
 10
65.375302
 20
252.631752
 30
0.0
  0
SPLINE
  5
1c6
100
AcDbEntity
  8
Layer_1
 62
7
100
AcDbSpline
 70
8
 71
3
 72
8
 73
4
 74
0
 40
0
 40
0
 40
0
 40
0
 40
1
 40
1
 40
1
 40
1
 10
65.375302
 20
252.631752
 30
0.0
 10
64.526777
 20
253.480277
 30
0.0
 10
63.375930
 20
253.956974
 30
0.0
 10
62.175934
 20
253.956974
 30
0.0
  0
LINE
  5
1c7
100
AcDbEntity
  8
Layer_1
 62
7
100
AcDbLine
 10
62.175934
 20
253.956974
 30
0.0
 11
62.175934
 21
253.956974
 31
0.0
  0
SPLINE
  5
1c8
100
AcDbEntity
  8
Layer_1
 62
7
100
AcDbSpline
 70
8
 71
3
 72
8
 73
4
 74
0
 40
0
 40
0
 40
0
 40
0
 40
1
 40
1
 40
1
 40
1
 10
60.600170
 20
264.469349
 30
0.0
 10
58.770144
 20
264.469349
 30
0.0
 10
57.120314
 20
263.366968
 30
0.0
 10
56.419994
 20
261.676245
 30
0.0
  0
SPLINE
  5
1c9
100
AcDbEntity
  8
Layer_1
 62
7
100
AcDbSpline
 70
8
 71
3
 72
8
 73
4
 74
0
 40
0
 40
0
 40
0
 40
0
 40
1
 40
1
 40
1
 40
1
 10
56.419994
 20
261.676245
 30
0.0
 10
55.719673
 20
259.985521
 30
0.0
 10
56.106778
 20
258.039414
 30
0.0
 10
57.400802
 20
256.745391
 30
0.0
  0
SPLINE
  5
1ca
100
AcDbEntity
  8
Layer_1
 62
7
100
AcDbSpline
 70
8
 71
3
 72
8
 73
4
 74
0
 40
0
 40
0
 40
0
 40
0
 40
1
 40
1
 40
1
 40
1
 10
57.400802
 20
256.745391
 30
0.0
 10
58.694825
 20
255.451367
 30
0.0
 10
60.640932
 20
255.064262
 30
0.0
 10
62.331656
 20
255.764583
 30
0.0
  0
SPLINE
  5
1cb
100
AcDbEntity
  8
Layer_1
 62
7
100
AcDbSpline
 70
8
 71
3
 72
8
 73
4
 74
0
 40
0
 40
0
 40
0
 40
0
 40
1
 40
1
 40
1
 40
1
 10
62.331656
 20
255.764583
 30
0.0
 10
64.022379
 20
256.464903
 30
0.0
 10
65.124760
 20
258.114733
 30
0.0
 10
65.124760
 20
259.944759
 30
0.0
  0
SPLINE
  5
1cc
100
AcDbEntity
  8
Layer_1
 62
7
100
AcDbSpline
 70
8
 71
3
 72
8
 73
4
 74
0
 40
0
 40
0
 40
0
 40
0
 40
1
 40
1
 40
1
 40
1
 10
65.124760
 20
259.944759
 30
0.0
 10
65.124760
 20
261.144755
 30
0.0
 10
64.648063
 20
262.295602
 30
0.0
 10
63.799538
 20
263.144127
 30
0.0
  0
SPLINE
  5
1cd
100
AcDbEntity
  8
Layer_1
 62
7
100
AcDbSpline
 70
8
 71
3
 72
8
 73
4
 74
0
 40
0
 40
0
 40
0
 40
0
 40
1
 40
1
 40
1
 40
1
 10
63.799538
 20
263.144127
 30
0.0
 10
62.951013
 20
263.992652
 30
0.0
 10
61.800166
 20
264.469349
 30
0.0
 10
60.600170
 20
264.469349
 30
0.0
  0
LINE
  5
1ce
100
AcDbEntity
  8
Layer_1
 62
7
100
AcDbLine
 10
60.600170
 20
264.469349
 30
0.0
 11
60.600170
 21
264.469349
 31
0.0
  0
SPLINE
  5
1cf
100
AcDbEntity
  8
Layer_1
 62
7
100
AcDbSpline
 70
8
 71
3
 72
8
 73
4
 74
0
 40
0
 40
0
 40
0
 40
0
 40
1
 40
1
 40
1
 40
1
 10
53.475636
 20
271.866360
 30
0.0
 10
51.645610
 20
271.866360
 30
0.0
 10
49.995780
 20
270.763979
 30
0.0
 10
49.295460
 20
269.073256
 30
0.0
  0
SPLINE
  5
1d0
100
AcDbEntity
  8
Layer_1
 62
7
100
AcDbSpline
 70
8
 71
3
 72
8
 73
4
 74
0
 40
0
 40
0
 40
0
 40
0
 40
1
 40
1
 40
1
 40
1
 10
49.295460
 20
269.073256
 30
0.0
 10
48.595139
 20
267.382532
 30
0.0
 10
48.982244
 20
265.436425
 30
0.0
 10
50.276268
 20
264.142402
 30
0.0
  0
SPLINE
  5
1d1
100
AcDbEntity
  8
Layer_1
 62
7
100
AcDbSpline
 70
8
 71
3
 72
8
 73
4
 74
0
 40
0
 40
0
 40
0
 40
0
 40
1
 40
1
 40
1
 40
1
 10
50.276268
 20
264.142402
 30
0.0
 10
51.570291
 20
262.848378
 30
0.0
 10
53.516398
 20
262.461273
 30
0.0
 10
55.207122
 20
263.161594
 30
0.0
  0
SPLINE
  5
1d2
100
AcDbEntity
  8
Layer_1
 62
7
100
AcDbSpline
 70
8
 71
3
 72
8
 73
4
 74
0
 40
0
 40
0
 40
0
 40
0
 40
1
 40
1
 40
1
 40
1
 10
55.207122
 20
263.161594
 30
0.0
 10
56.897845
 20
263.861914
 30
0.0
 10
58.000226
 20
265.511744
 30
0.0
 10
58.000226
 20
267.341770
 30
0.0
  0
SPLINE
  5
1d3
100
AcDbEntity
  8
Layer_1
 62
7
100
AcDbSpline
 70
8
 71
3
 72
8
 73
4
 74
0
 40
0
 40
0
 40
0
 40
0
 40
1
 40
1
 40
1
 40
1
 10
58.000226
 20
267.341770
 30
0.0
 10
58.000226
 20
268.541766
 30
0.0
 10
57.523529
 20
269.692613
 30
0.0
 10
56.675004
 20
270.541138
 30
0.0
  0
SPLINE
  5
1d4
100
AcDbEntity
  8
Layer_1
 62
7
100
AcDbSpline
 70
8
 71
3
 72
8
 73
4
 74
0
 40
0
 40
0
 40
0
 40
0
 40
1
 40
1
 40
1
 40
1
 10
56.675004
 20
270.541138
 30
0.0
 10
55.826479
 20
271.389663
 30
0.0
 10
54.675632
 20
271.866360
 30
0.0
 10
53.475636
 20
271.866360
 30
0.0
  0
LINE
  5
1d5
100
AcDbEntity
  8
Layer_1
 62
7
100
AcDbLine
 10
53.475636
 20
271.866360
 30
0.0
 11
53.475636
 21
271.866360
 31
0.0
  0
SPLINE
  5
1d6
100
AcDbEntity
  8
Layer_1
 62
7
100
AcDbSpline
 70
8
 71
3
 72
8
 73
4
 74
0
 40
0
 40
0
 40
0
 40
0
 40
1
 40
1
 40
1
 40
1
 10
43.035732
 20
273.767323
 30
0.0
 10
41.205706
 20
273.767323
 30
0.0
 10
39.555876
 20
272.664942
 30
0.0
 10
38.855556
 20
270.974219
 30
0.0
  0
SPLINE
  5
1d7
100
AcDbEntity
  8
Layer_1
 62
7
100
AcDbSpline
 70
8
 71
3
 72
8
 73
4
 74
0
 40
0
 40
0
 40
0
 40
0
 40
1
 40
1
 40
1
 40
1
 10
38.855556
 20
270.974219
 30
0.0
 10
38.155235
 20
269.283495
 30
0.0
 10
38.542340
 20
267.337388
 30
0.0
 10
39.836364
 20
266.043365
 30
0.0
  0
SPLINE
  5
1d8
100
AcDbEntity
  8
Layer_1
 62
7
100
AcDbSpline
 70
8
 71
3
 72
8
 73
4
 74
0
 40
0
 40
0
 40
0
 40
0
 40
1
 40
1
 40
1
 40
1
 10
39.836364
 20
266.043365
 30
0.0
 10
41.130387
 20
264.749341
 30
0.0
 10
43.076494
 20
264.362236
 30
0.0
 10
44.767218
 20
265.062557
 30
0.0
  0
SPLINE
  5
1d9
100
AcDbEntity
  8
Layer_1
 62
7
100
AcDbSpline
 70
8
 71
3
 72
8
 73
4
 74
0
 40
0
 40
0
 40
0
 40
0
 40
1
 40
1
 40
1
 40
1
 10
44.767218
 20
265.062557
 30
0.0
 10
46.457941
 20
265.762877
 30
0.0
 10
47.560322
 20
267.412707
 30
0.0
 10
47.560322
 20
269.242733
 30
0.0
  0
SPLINE
  5
1da
100
AcDbEntity
  8
Layer_1
 62
7
100
AcDbSpline
 70
8
 71
3
 72
8
 73
4
 74
0
 40
0
 40
0
 40
0
 40
0
 40
1
 40
1
 40
1
 40
1
 10
47.560322
 20
269.242733
 30
0.0
 10
47.560322
 20
270.442729
 30
0.0
 10
47.083625
 20
271.593576
 30
0.0
 10
46.235100
 20
272.442101
 30
0.0
  0
SPLINE
  5
1db
100
AcDbEntity
  8
Layer_1
 62
7
100
AcDbSpline
 70
8
 71
3
 72
8
 73
4
 74
0
 40
0
 40
0
 40
0
 40
0
 40
1
 40
1
 40
1
 40
1
 10
46.235100
 20
272.442101
 30
0.0
 10
45.386575
 20
273.290626
 30
0.0
 10
44.235728
 20
273.767323
 30
0.0
 10
43.035732
 20
273.767323
 30
0.0
  0
LINE
  5
1dc
100
AcDbEntity
  8
Layer_1
 62
7
100
AcDbLine
 10
43.035732
 20
273.767323
 30
0.0
 11
43.035732
 21
273.767323
 31
0.0
  0
SPLINE
  5
1dd
100
AcDbEntity
  8
Layer_1
 62
7
100
AcDbSpline
 70
8
 71
3
 72
8
 73
4
 74
0
 40
0
 40
0
 40
0
 40
0
 40
1
 40
1
 40
1
 40
1
 10
33.361248
 20
269.768910
 30
0.0
 10
31.531222
 20
269.768910
 30
0.0
 10
29.881392
 20
268.666529
 30
0.0
 10
29.181072
 20
266.975806
 30
0.0
  0
SPLINE
  5
1de
100
AcDbEntity
  8
Layer_1
 62
7
100
AcDbSpline
 70
8
 71
3
 72
8
 73
4
 74
0
 40
0
 40
0
 40
0
 40
0
 40
1
 40
1
 40
1
 40
1
 10
29.181072
 20
266.975806
 30
0.0
 10
28.480751
 20
265.285082
 30
0.0
 10
28.867856
 20
263.338975
 30
0.0
 10
30.161880
 20
262.044952
 30
0.0
  0
SPLINE
  5
1df
100
AcDbEntity
  8
Layer_1
 62
7
100
AcDbSpline
 70
8
 71
3
 72
8
 73
4
 74
0
 40
0
 40
0
 40
0
 40
0
 40
1
 40
1
 40
1
 40
1
 10
30.161880
 20
262.044952
 30
0.0
 10
31.455903
 20
260.750928
 30
0.0
 10
33.402010
 20
260.363823
 30
0.0
 10
35.092734
 20
261.064144
 30
0.0
  0
SPLINE
  5
1e0
100
AcDbEntity
  8
Layer_1
 62
7
100
AcDbSpline
 70
8
 71
3
 72
8
 73
4
 74
0
 40
0
 40
0
 40
0
 40
0
 40
1
 40
1
 40
1
 40
1
 10
35.092734
 20
261.064144
 30
0.0
 10
36.783457
 20
261.764464
 30
0.0
 10
37.885838
 20
263.414294
 30
0.0
 10
37.885838
 20
265.244320
 30
0.0
  0
SPLINE
  5
1e1
100
AcDbEntity
  8
Layer_1
 62
7
100
AcDbSpline
 70
8
 71
3
 72
8
 73
4
 74
0
 40
0
 40
0
 40
0
 40
0
 40
1
 40
1
 40
1
 40
1
 10
37.885838
 20
265.244320
 30
0.0
 10
37.885838
 20
266.444316
 30
0.0
 10
37.409141
 20
267.595163
 30
0.0
 10
36.560616
 20
268.443688
 30
0.0
  0
SPLINE
  5
1e2
100
AcDbEntity
  8
Layer_1
 62
7
100
AcDbSpline
 70
8
 71
3
 72
8
 73
4
 74
0
 40
0
 40
0
 40
0
 40
0
 40
1
 40
1
 40
1
 40
1
 10
36.560616
 20
268.443688
 30
0.0
 10
35.712091
 20
269.292213
 30
0.0
 10
34.561244
 20
269.768910
 30
0.0
 10
33.361248
 20
269.768910
 30
0.0
  0
LINE
  5
1e3
100
AcDbEntity
  8
Layer_1
 62
7
100
AcDbLine
 10
33.361248
 20
269.768910
 30
0.0
 11
33.361248
 21
269.768910
 31
0.0
  0
SPLINE
  5
1e4
100
AcDbEntity
  8
Layer_1
 62
7
100
AcDbSpline
 70
8
 71
3
 72
8
 73
4
 74
0
 40
0
 40
0
 40
0
 40
0
 40
1
 40
1
 40
1
 40
1
 10
28.141720
 20
260.806523
 30
0.0
 10
26.311694
 20
260.806523
 30
0.0
 10
24.661864
 20
259.704142
 30
0.0
 10
23.961544
 20
258.013419
 30
0.0
  0
SPLINE
  5
1e5
100
AcDbEntity
  8
Layer_1
 62
7
100
AcDbSpline
 70
8
 71
3
 72
8
 73
4
 74
0
 40
0
 40
0
 40
0
 40
0
 40
1
 40
1
 40
1
 40
1
 10
23.961544
 20
258.013419
 30
0.0
 10
23.261223
 20
256.322695
 30
0.0
 10
23.648328
 20
254.376588
 30
0.0
 10
24.942352
 20
253.082565
 30
0.0
  0
SPLINE
  5
1e6
100
AcDbEntity
  8
Layer_1
 62
7
100
AcDbSpline
 70
8
 71
3
 72
8
 73
4
 74
0
 40
0
 40
0
 40
0
 40
0
 40
1
 40
1
 40
1
 40
1
 10
24.942352
 20
253.082565
 30
0.0
 10
26.236375
 20
251.788541
 30
0.0
 10
28.182482
 20
251.401436
 30
0.0
 10
29.873206
 20
252.101757
 30
0.0
  0
SPLINE
  5
1e7
100
AcDbEntity
  8
Layer_1
 62
7
100
AcDbSpline
 70
8
 71
3
 72
8
 73
4
 74
0
 40
0
 40
0
 40
0
 40
0
 40
1
 40
1
 40
1
 40
1
 10
29.873206
 20
252.101757
 30
0.0
 10
31.563929
 20
252.802077
 30
0.0
 10
32.666310
 20
254.451907
 30
0.0
 10
32.666310
 20
256.281933
 30
0.0
  0
SPLINE
  5
1e8
100
AcDbEntity
  8
Layer_1
 62
7
100
AcDbSpline
 70
8
 71
3
 72
8
 73
4
 74
0
 40
0
 40
0
 40
0
 40
0
 40
1
 40
1
 40
1
 40
1
 10
32.666310
 20
256.281933
 30
0.0
 10
32.666310
 20
257.481929
 30
0.0
 10
32.189613
 20
258.632776
 30
0.0
 10
31.341088
 20
259.481301
 30
0.0
  0
SPLINE
  5
1e9
100
AcDbEntity
  8
Layer_1
 62
7
100
AcDbSpline
 70
8
 71
3
 72
8
 73
4
 74
0
 40
0
 40
0
 40
0
 40
0
 40
1
 40
1
 40
1
 40
1
 10
31.341088
 20
259.481301
 30
0.0
 10
30.492563
 20
260.329826
 30
0.0
 10
29.341716
 20
260.806523
 30
0.0
 10
28.141720
 20
260.806523
 30
0.0
  0
LINE
  5
1ea
100
AcDbEntity
  8
Layer_1
 62
7
100
AcDbLine
 10
28.141720
 20
260.806523
 30
0.0
 11
28.141720
 21
260.806523
 31
0.0
  0
SPLINE
  5
1eb
100
AcDbEntity
  8
Layer_1
 62
7
100
AcDbSpline
 70
8
 71
3
 72
8
 73
4
 74
0
 40
0
 40
0
 40
0
 40
0
 40
1
 40
1
 40
1
 40
1
 10
28.739166
 20
250.171910
 30
0.0
 10
26.909140
 20
250.171910
 30
0.0
 10
25.259310
 20
249.069529
 30
0.0
 10
24.558990
 20
247.378806
 30
0.0
  0
SPLINE
  5
1ec
100
AcDbEntity
  8
Layer_1
 62
7
100
AcDbSpline
 70
8
 71
3
 72
8
 73
4
 74
0
 40
0
 40
0
 40
0
 40
0
 40
1
 40
1
 40
1
 40
1
 10
24.558990
 20
247.378806
 30
0.0
 10
23.858669
 20
245.688082
 30
0.0
 10
24.245774
 20
243.741975
 30
0.0
 10
25.539798
 20
242.447952
 30
0.0
  0
SPLINE
  5
1ed
100
AcDbEntity
  8
Layer_1
 62
7
100
AcDbSpline
 70
8
 71
3
 72
8
 73
4
 74
0
 40
0
 40
0
 40
0
 40
0
 40
1
 40
1
 40
1
 40
1
 10
25.539798
 20
242.447952
 30
0.0
 10
26.833821
 20
241.153928
 30
0.0
 10
28.779928
 20
240.766823
 30
0.0
 10
30.470652
 20
241.467144
 30
0.0
  0
SPLINE
  5
1ee
100
AcDbEntity
  8
Layer_1
 62
7
100
AcDbSpline
 70
8
 71
3
 72
8
 73
4
 74
0
 40
0
 40
0
 40
0
 40
0
 40
1
 40
1
 40
1
 40
1
 10
30.470652
 20
241.467144
 30
0.0
 10
32.161375
 20
242.167464
 30
0.0
 10
33.263756
 20
243.817294
 30
0.0
 10
33.263756
 20
245.647320
 30
0.0
  0
SPLINE
  5
1ef
100
AcDbEntity
  8
Layer_1
 62
7
100
AcDbSpline
 70
8
 71
3
 72
8
 73
4
 74
0
 40
0
 40
0
 40
0
 40
0
 40
1
 40
1
 40
1
 40
1
 10
33.263756
 20
245.647320
 30
0.0
 10
33.263756
 20
246.847316
 30
0.0
 10
32.787059
 20
247.998163
 30
0.0
 10
31.938534
 20
248.846688
 30
0.0
  0
SPLINE
  5
1f0
100
AcDbEntity
  8
Layer_1
 62
7
100
AcDbSpline
 70
8
 71
3
 72
8
 73
4
 74
0
 40
0
 40
0
 40
0
 40
0
 40
1
 40
1
 40
1
 40
1
 10
31.938534
 20
248.846688
 30
0.0
 10
31.090009
 20
249.695213
 30
0.0
 10
29.939162
 20
250.171910
 30
0.0
 10
28.739166
 20
250.171910
 30
0.0
  0
LINE
  5
1f1
100
AcDbEntity
  8
Layer_1
 62
7
100
AcDbLine
 10
28.739166
 20
250.171910
 30
0.0
 11
28.739166
 21
250.171910
 31
0.0
  0
SPLINE
  5
1f2
100
AcDbEntity
  8
Layer_1
 62
7
100
AcDbSpline
 70
8
 71
3
 72
8
 73
4
 74
0
 40
0
 40
0
 40
0
 40
0
 40
1
 40
1
 40
1
 40
1
 10
35.045528
 20
242.029164
 30
0.0
 10
33.215502
 20
242.029164
 30
0.0
 10
31.565672
 20
240.926783
 30
0.0
 10
30.865352
 20
239.236060
 30
0.0
  0
SPLINE
  5
1f3
100
AcDbEntity
  8
Layer_1
 62
7
100
AcDbSpline
 70
8
 71
3
 72
8
 73
4
 74
0
 40
0
 40
0
 40
0
 40
0
 40
1
 40
1
 40
1
 40
1
 10
30.865352
 20
239.236060
 30
0.0
 10
30.165031
 20
237.545336
 30
0.0
 10
30.552136
 20
235.599229
 30
0.0
 10
31.846160
 20
234.305206
 30
0.0
  0
SPLINE
  5
1f4
100
AcDbEntity
  8
Layer_1
 62
7
100
AcDbSpline
 70
8
 71
3
 72
8
 73
4
 74
0
 40
0
 40
0
 40
0
 40
0
 40
1
 40
1
 40
1
 40
1
 10
31.846160
 20
234.305206
 30
0.0
 10
33.140183
 20
233.011182
 30
0.0
 10
35.086290
 20
232.624077
 30
0.0
 10
36.777014
 20
233.324398
 30
0.0
  0
SPLINE
  5
1f5
100
AcDbEntity
  8
Layer_1
 62
7
100
AcDbSpline
 70
8
 71
3
 72
8
 73
4
 74
0
 40
0
 40
0
 40
0
 40
0
 40
1
 40
1
 40
1
 40
1
 10
36.777014
 20
233.324398
 30
0.0
 10
38.467737
 20
234.024718
 30
0.0
 10
39.570118
 20
235.674548
 30
0.0
 10
39.570118
 20
237.504574
 30
0.0
  0
SPLINE
  5
1f6
100
AcDbEntity
  8
Layer_1
 62
7
100
AcDbSpline
 70
8
 71
3
 72
8
 73
4
 74
0
 40
0
 40
0
 40
0
 40
0
 40
1
 40
1
 40
1
 40
1
 10
39.570118
 20
237.504574
 30
0.0
 10
39.570118
 20
238.704570
 30
0.0
 10
39.093421
 20
239.855417
 30
0.0
 10
38.244896
 20
240.703942
 30
0.0
  0
SPLINE
  5
1f7
100
AcDbEntity
  8
Layer_1
 62
7
100
AcDbSpline
 70
8
 71
3
 72
8
 73
4
 74
0
 40
0
 40
0
 40
0
 40
0
 40
1
 40
1
 40
1
 40
1
 10
38.244896
 20
240.703942
 30
0.0
 10
37.396371
 20
241.552467
 30
0.0
 10
36.245524
 20
242.029164
 30
0.0
 10
35.045528
 20
242.029164
 30
0.0
  0
LINE
  5
1f8
100
AcDbEntity
  8
Layer_1
 62
7
100
AcDbLine
 10
35.045528
 20
242.029164
 30
0.0
 11
35.045528
 21
242.029164
 31
0.0
  0
SPLINE
  5
1f9
100
AcDbEntity
  8
Layer_1
 62
7
100
AcDbSpline
 70
8
 71
3
 72
8
 73
4
 74
0
 40
0
 40
0
 40
0
 40
0
 40
1
 40
1
 40
1
 40
1
 10
44.999783
 20
239.181111
 30
0.0
 10
43.169757
 20
239.181111
 30
0.0
 10
41.519927
 20
238.078730
 30
0.0
 10
40.819607
 20
236.388007
 30
0.0
  0
SPLINE
  5
1fa
100
AcDbEntity
  8
Layer_1
 62
7
100
AcDbSpline
 70
8
 71
3
 72
8
 73
4
 74
0
 40
0
 40
0
 40
0
 40
0
 40
1
 40
1
 40
1
 40
1
 10
40.819607
 20
236.388007
 30
0.0
 10
40.119286
 20
234.697283
 30
0.0
 10
40.506391
 20
232.751176
 30
0.0
 10
41.800415
 20
231.457153
 30
0.0
  0
SPLINE
  5
1fb
100
AcDbEntity
  8
Layer_1
 62
7
100
AcDbSpline
 70
8
 71
3
 72
8
 73
4
 74
0
 40
0
 40
0
 40
0
 40
0
 40
1
 40
1
 40
1
 40
1
 10
41.800415
 20
231.457153
 30
0.0
 10
43.094438
 20
230.163129
 30
0.0
 10
45.040545
 20
229.776024
 30
0.0
 10
46.731269
 20
230.476345
 30
0.0
  0
SPLINE
  5
1fc
100
AcDbEntity
  8
Layer_1
 62
7
100
AcDbSpline
 70
8
 71
3
 72
8
 73
4
 74
0
 40
0
 40
0
 40
0
 40
0
 40
1
 40
1
 40
1
 40
1
 10
46.731269
 20
230.476345
 30
0.0
 10
48.421992
 20
231.176665
 30
0.0
 10
49.524373
 20
232.826495
 30
0.0
 10
49.524373
 20
234.656521
 30
0.0
  0
SPLINE
  5
1fd
100
AcDbEntity
  8
Layer_1
 62
7
100
AcDbSpline
 70
8
 71
3
 72
8
 73
4
 74
0
 40
0
 40
0
 40
0
 40
0
 40
1
 40
1
 40
1
 40
1
 10
49.524373
 20
234.656521
 30
0.0
 10
49.524373
 20
235.856517
 30
0.0
 10
49.047676
 20
237.007364
 30
0.0
 10
48.199151
 20
237.855889
 30
0.0
  0
SPLINE
  5
1fe
100
AcDbEntity
  8
Layer_1
 62
7
100
AcDbSpline
 70
8
 71
3
 72
8
 73
4
 74
0
 40
0
 40
0
 40
0
 40
0
 40
1
 40
1
 40
1
 40
1
 10
48.199151
 20
237.855889
 30
0.0
 10
47.350626
 20
238.704414
 30
0.0
 10
46.199779
 20
239.181111
 30
0.0
 10
44.999783
 20
239.181111
 30
0.0
  0
LINE
  5
1ff
100
AcDbEntity
  8
Layer_1
 62
7
100
AcDbLine
 10
44.999783
 20
239.181111
 30
0.0
 11
44.999783
 21
239.181111
 31
0.0
  0
SPLINE
  5
200
100
AcDbEntity
  8
Layer_1
 62
7
100
AcDbSpline
 70
8
 71
3
 72
8
 73
4
 74
0
 40
0
 40
0
 40
0
 40
0
 40
1
 40
1
 40
1
 40
1
 10
55.267338
 20
242.295826
 30
0.0
 10
53.437312
 20
242.295826
 30
0.0
 10
51.787482
 20
241.193445
 30
0.0
 10
51.087162
 20
239.502722
 30
0.0
  0
SPLINE
  5
201
100
AcDbEntity
  8
Layer_1
 62
7
100
AcDbSpline
 70
8
 71
3
 72
8
 73
4
 74
0
 40
0
 40
0
 40
0
 40
0
 40
1
 40
1
 40
1
 40
1
 10
51.087162
 20
239.502722
 30
0.0
 10
50.386841
 20
237.811998
 30
0.0
 10
50.773946
 20
235.865891
 30
0.0
 10
52.067970
 20
234.571868
 30
0.0
  0
SPLINE
  5
202
100
AcDbEntity
  8
Layer_1
 62
7
100
AcDbSpline
 70
8
 71
3
 72
8
 73
4
 74
0
 40
0
 40
0
 40
0
 40
0
 40
1
 40
1
 40
1
 40
1
 10
52.067970
 20
234.571868
 30
0.0
 10
53.361993
 20
233.277844
 30
0.0
 10
55.308100
 20
232.890739
 30
0.0
 10
56.998824
 20
233.591060
 30
0.0
  0
SPLINE
  5
203
100
AcDbEntity
  8
Layer_1
 62
7
100
AcDbSpline
 70
8
 71
3
 72
8
 73
4
 74
0
 40
0
 40
0
 40
0
 40
0
 40
1
 40
1
 40
1
 40
1
 10
56.998824
 20
233.591060
 30
0.0
 10
58.689547
 20
234.291380
 30
0.0
 10
59.791928
 20
235.941210
 30
0.0
 10
59.791928
 20
237.771236
 30
0.0
  0
SPLINE
  5
204
100
AcDbEntity
  8
Layer_1
 62
7
100
AcDbSpline
 70
8
 71
3
 72
8
 73
4
 74
0
 40
0
 40
0
 40
0
 40
0
 40
1
 40
1
 40
1
 40
1
 10
59.791928
 20
237.771236
 30
0.0
 10
59.791928
 20
238.971232
 30
0.0
 10
59.315231
 20
240.122079
 30
0.0
 10
58.466706
 20
240.970604
 30
0.0
  0
SPLINE
  5
205
100
AcDbEntity
  8
Layer_1
 62
7
100
AcDbSpline
 70
8
 71
3
 72
8
 73
4
 74
0
 40
0
 40
0
 40
0
 40
0
 40
1
 40
1
 40
1
 40
1
 10
58.466706
 20
240.970604
 30
0.0
 10
57.618181
 20
241.819129
 30
0.0
 10
56.467334
 20
242.295826
 30
0.0
 10
55.267338
 20
242.295826
 30
0.0
  0
LINE
  5
206
100
AcDbEntity
  8
Layer_1
 62
7
100
AcDbLine
 10
55.267338
 20
242.295826
 30
0.0
 11
55.267338
 21
242.295826
 31
0.0
  0
SPLINE
  5
207
100
AcDbEntity
  8
Layer_1
 62
7
100
AcDbSpline
 70
8
 71
3
 72
8
 73
4
 74
0
 40
0
 40
0
 40
0
 40
0
 40
1
 40
1
 40
1
 40
1
 10
44.999741
 20
275.400378
 30
0.0
 10
32.081015
 20
275.400378
 30
0.0
 10
21.599620
 20
264.918471
 30
0.0
 10
21.599620
 20
251.999741
 30
0.0
  0
SPLINE
  5
208
100
AcDbEntity
  8
Layer_1
 62
7
100
AcDbSpline
 70
8
 71
3
 72
8
 73
4
 74
0
 40
0
 40
0
 40
0
 40
0
 40
1
 40
1
 40
1
 40
1
 10
21.599620
 20
251.999741
 30
0.0
 10
21.599620
 20
239.081011
 30
0.0
 10
32.081015
 20
228.599621
 30
0.0
 10
44.999741
 20
228.599621
 30
0.0
  0
SPLINE
  5
209
100
AcDbEntity
  8
Layer_1
 62
7
100
AcDbSpline
 70
8
 71
3
 72
8
 73
4
 74
0
 40
0
 40
0
 40
0
 40
0
 40
1
 40
1
 40
1
 40
1
 10
44.999741
 20
228.599621
 30
0.0
 10
53.286927
 20
228.599621
 30
0.0
 10
60.570880
 20
232.913071
 30
0.0
 10
64.728770
 20
239.416011
 30
0.0
  0
LINE
  5
20a
100
AcDbEntity
  8
Layer_1
 62
7
100
AcDbLine
 10
64.728770
 20
239.416011
 30
0.0
 11
65.104457
 21
239.247541
 31
0.0
  0
LINE
  5
20b
100
AcDbEntity
  8
Layer_1
 62
7
100
AcDbLine
 10
65.104457
 20
239.247541
 30
0.0
 11
66.907447
 21
242.892801
 31
0.0
  0
LINE
  5
20c
100
AcDbEntity
  8
Layer_1
 62
7
100
AcDbLine
 10
66.907447
 20
242.892801
 30
0.0
 11
66.618059
 21
243.034911
 31
0.0
  0
SPLINE
  5
20d
100
AcDbEntity
  8
Layer_1
 62
7
100
AcDbSpline
 70
8
 71
3
 72
8
 73
4
 74
0
 40
0
 40
0
 40
0
 40
0
 40
1
 40
1
 40
1
 40
1
 10
66.618059
 20
243.034911
 30
0.0
 10
67.765366
 20
245.796611
 30
0.0
 10
68.400380
 20
248.823991
 30
0.0
 10
68.400380
 20
251.999741
 30
0.0
  0
SPLINE
  5
20e
100
AcDbEntity
  8
Layer_1
 62
7
100
AcDbSpline
 70
8
 71
3
 72
8
 73
4
 74
0
 40
0
 40
0
 40
0
 40
0
 40
1
 40
1
 40
1
 40
1
 10
68.400380
 20
251.999741
 30
0.0
 10
68.400380
 20
264.918471
 30
0.0
 10
57.918467
 20
275.400378
 30
0.0
 10
44.999741
 20
275.400378
 30
0.0
  0
LINE
  5
20f
100
AcDbEntity
  8
Layer_1
 62
7
100
AcDbLine
 10
44.999741
 20
275.400378
 30
0.0
 11
44.999741
 21
275.400378
 31
0.0
  0
SPLINE
  5
210
100
AcDbEntity
  8
Layer_1
 62
7
100
AcDbSpline
 70
8
 71
3
 72
8
 73
4
 74
0
 40
0
 40
0
 40
0
 40
0
 40
1
 40
1
 40
1
 40
1
 10
44.999741
 20
274.599391
 30
0.0
 10
57.486114
 20
274.599391
 30
0.0
 10
67.599396
 20
264.486111
 30
0.0
 10
67.599396
 20
251.999741
 30
0.0
  0
SPLINE
  5
211
100
AcDbEntity
  8
Layer_1
 62
7
100
AcDbSpline
 70
8
 71
3
 72
8
 73
4
 74
0
 40
0
 40
0
 40
0
 40
0
 40
1
 40
1
 40
1
 40
1
 10
67.599396
 20
251.999741
 30
0.0
 10
67.599396
 20
248.949311
 30
0.0
 10
66.994593
 20
246.041651
 30
0.0
 10
65.900274
 20
243.387341
 30
0.0
  0
LINE
  5
212
100
AcDbEntity
  8
Layer_1
 62
7
100
AcDbLine
 10
65.900274
 20
243.387341
 30
0.0
 11
65.719407
 21
243.476241
 31
0.0
  0
SPLINE
  5
213
100
AcDbEntity
  8
Layer_1
 62
7
100
AcDbSpline
 70
8
 71
3
 72
8
 73
4
 74
0
 40
0
 40
0
 40
0
 40
0
 40
1
 40
1
 40
1
 40
1
 10
65.719407
 20
243.476241
 30
0.0
 10
65.561678
 20
243.518441
 30
0.0
 10
65.263289
 20
243.467241
 30
0.0
 10
65.137530
 20
243.436441
 30
0.0
  0
SPLINE
  5
214
100
AcDbEntity
  8
Layer_1
 62
7
100
AcDbSpline
 70
8
 71
3
 72
8
 73
4
 74
0
 40
0
 40
0
 40
0
 40
0
 40
1
 40
1
 40
1
 40
1
 10
65.137530
 20
243.436441
 30
0.0
 10
60.247504
 20
242.245481
 30
0.0
 10
58.545500
 20
245.500671
 30
0.0
 10
58.023752
 20
245.669381
 30
0.0
  0
SPLINE
  5
215
100
AcDbEntity
  8
Layer_1
 62
7
100
AcDbSpline
 70
8
 71
3
 72
8
 73
4
 74
0
 40
0
 40
0
 40
0
 40
0
 40
1
 40
1
 40
1
 40
1
 10
58.023752
 20
245.669381
 30
0.0
 10
57.122862
 20
246.027201
 30
0.0
 10
56.917431
 20
244.829491
 30
0.0
 10
57.421206
 20
243.702571
 30
0.0
  0
SPLINE
  5
216
100
AcDbEntity
  8
Layer_1
 62
7
100
AcDbSpline
 70
8
 71
3
 72
8
 73
4
 74
0
 40
0
 40
0
 40
0
 40
0
 40
1
 40
1
 40
1
 40
1
 10
57.421206
 20
243.702571
 30
0.0
 10
57.724990
 20
243.059911
 30
0.0
 10
58.295765
 20
242.364701
 30
0.0
 10
59.083636
 20
241.948671
 30
0.0
  0
LINE
  5
217
100
AcDbEntity
  8
Layer_1
 62
7
100
AcDbLine
 10
59.083636
 20
241.948671
 30
0.0
 11
63.988762
 21
239.748291
 31
0.0
  0
SPLINE
  5
218
100
AcDbEntity
  8
Layer_1
 62
7
100
AcDbSpline
 70
8
 71
3
 72
8
 73
4
 74
0
 40
0
 40
0
 40
0
 40
0
 40
1
 40
1
 40
1
 40
1
 10
63.988762
 20
239.748291
 30
0.0
 10
59.964942
 20
233.522651
 30
0.0
 10
52.968054
 20
229.400601
 30
0.0
 10
44.999741
 20
229.400601
 30
0.0
  0
SPLINE
  5
219
100
AcDbEntity
  8
Layer_1
 62
7
100
AcDbSpline
 70
8
 71
3
 72
8
 73
4
 74
0
 40
0
 40
0
 40
0
 40
0
 40
1
 40
1
 40
1
 40
1
 10
44.999741
 20
229.400601
 30
0.0
 10
32.513368
 20
229.400601
 30
0.0
 10
22.400088
 20
239.513371
 30
0.0
 10
22.400088
 20
251.999741
 30
0.0
  0
SPLINE
  5
21a
100
AcDbEntity
  8
Layer_1
 62
7
100
AcDbSpline
 70
8
 71
3
 72
8
 73
4
 74
0
 40
0
 40
0
 40
0
 40
0
 40
1
 40
1
 40
1
 40
1
 10
22.400088
 20
251.999741
 30
0.0
 10
22.400088
 20
264.486111
 30
0.0
 10
32.513368
 20
274.599391
 30
0.0
 10
44.999741
 20
274.599391
 30
0.0
  0
LINE
  5
21b
100
AcDbEntity
  8
Layer_1
 62
7
100
AcDbLine
 10
44.999741
 20
274.599391
 30
0.0
 11
44.999741
 21
274.599391
 31
0.0
  0
SPLINE
  5
21c
100
AcDbEntity
  8
Layer_1
 62
7
100
AcDbSpline
 70
8
 71
3
 72
8
 73
4
 74
0
 40
0
 40
0
 40
0
 40
0
 40
1
 40
1
 40
1
 40
1
 10
44.999783
 20
263.324201
 30
0.0
 10
38.749414
 20
263.324201
 30
0.0
 10
33.675562
 20
258.250351
 30
0.0
 10
33.675564
 20
251.999981
 30
0.0
  0
SPLINE
  5
21d
100
AcDbEntity
  8
Layer_1
 62
7
100
AcDbSpline
 70
8
 71
3
 72
8
 73
4
 74
0
 40
0
 40
0
 40
0
 40
0
 40
1
 40
1
 40
1
 40
1
 10
33.675564
 20
251.999981
 30
0.0
 10
33.675562
 20
245.749611
 30
0.0
 10
38.749414
 20
240.675761
 30
0.0
 10
44.999783
 20
240.675761
 30
0.0
  0
SPLINE
  5
21e
100
AcDbEntity
  8
Layer_1
 62
7
100
AcDbSpline
 70
8
 71
3
 72
8
 73
4
 74
0
 40
0
 40
0
 40
0
 40
0
 40
1
 40
1
 40
1
 40
1
 10
44.999783
 20
240.675761
 30
0.0
 10
51.250152
 20
240.675761
 30
0.0
 10
56.324004
 20
245.749611
 30
0.0
 10
56.324002
 20
251.999981
 30
0.0
  0
SPLINE
  5
21f
100
AcDbEntity
  8
Layer_1
 62
7
100
AcDbSpline
 70
8
 71
3
 72
8
 73
4
 74
0
 40
0
 40
0
 40
0
 40
0
 40
1
 40
1
 40
1
 40
1
 10
56.324002
 20
251.999981
 30
0.0
 10
56.324004
 20
258.250351
 30
0.0
 10
51.250152
 20
263.324201
 30
0.0
 10
44.999783
 20
263.324201
 30
0.0
  0
LINE
  5
220
100
AcDbEntity
  8
Layer_1
 62
7
100
AcDbLine
 10
44.999783
 20
263.324201
 30
0.0
 11
44.999783
 21
263.324201
 31
0.0
  0
SPLINE
  5
221
100
AcDbEntity
  8
Layer_1
 62
7
100
AcDbSpline
 70
8
 71
3
 72
8
 73
4
 74
0
 40
0
 40
0
 40
0
 40
0
 40
1
 40
1
 40
1
 40
1
 10
44.999783
 20
262.724591
 30
0.0
 10
50.925888
 20
262.724591
 30
0.0
 10
55.724395
 20
257.926091
 30
0.0
 10
55.724392
 20
251.999981
 30
0.0
  0
SPLINE
  5
222
100
AcDbEntity
  8
Layer_1
 62
7
100
AcDbSpline
 70
8
 71
3
 72
8
 73
4
 74
0
 40
0
 40
0
 40
0
 40
0
 40
1
 40
1
 40
1
 40
1
 10
55.724392
 20
251.999981
 30
0.0
 10
55.724395
 20
246.073871
 30
0.0
 10
50.925888
 20
241.275371
 30
0.0
 10
44.999783
 20
241.275371
 30
0.0
  0
SPLINE
  5
223
100
AcDbEntity
  8
Layer_1
 62
7
100
AcDbSpline
 70
8
 71
3
 72
8
 73
4
 74
0
 40
0
 40
0
 40
0
 40
0
 40
1
 40
1
 40
1
 40
1
 10
44.999783
 20
241.275371
 30
0.0
 10
39.073678
 20
241.275371
 30
0.0
 10
34.275171
 20
246.073871
 30
0.0
 10
34.275174
 20
251.999981
 30
0.0
  0
SPLINE
  5
224
100
AcDbEntity
  8
Layer_1
 62
7
100
AcDbSpline
 70
8
 71
3
 72
8
 73
4
 74
0
 40
0
 40
0
 40
0
 40
0
 40
1
 40
1
 40
1
 40
1
 10
34.275174
 20
251.999981
 30
0.0
 10
34.275171
 20
257.926091
 30
0.0
 10
39.073678
 20
262.724591
 30
0.0
 10
44.999783
 20
262.724591
 30
0.0
  0
LINE
  5
225
100
AcDbEntity
  8
Layer_1
 62
7
100
AcDbLine
 10
44.999783
 20
262.724591
 30
0.0
 11
44.999783
 21
262.724591
 31
0.0
  0
LINE
  5
226
100
AcDbEntity
  8
Layer_1
 62
7
100
AcDbLine
 10
62.537262
 20
251.137707
 30
0.0
 11
62.537262
 21
247.727062
 31
0.0
  0
LINE
  5
227
100
AcDbEntity
  8
Layer_1
 62
7
100
AcDbLine
 10
62.537262
 20
247.727062
 30
0.0
 11
61.782867
 21
247.727062
 31
0.0
  0
LINE
  5
228
100
AcDbEntity
  8
Layer_1
 62
7
100
AcDbLine
 10
61.782867
 20
247.727062
 30
0.0
 11
61.782867
 21
251.137707
 31
0.0
  0
LINE
  5
229
100
AcDbEntity
  8
Layer_1
 62
7
100
AcDbLine
 10
61.782867
 20
251.137707
 30
0.0
 11
62.537262
 21
251.137707
 31
0.0
  0
LINE
  5
22a
100
AcDbEntity
  8
Layer_1
 62
7
100
AcDbLine
 10
61.745190
 20
258.913265
 30
0.0
 11
61.745190
 21
258.217464
 31
0.0
  0
LINE
  5
22b
100
AcDbEntity
  8
Layer_1
 62
7
100
AcDbLine
 10
61.745190
 20
258.217464
 30
0.0
 11
59.491772
 21
258.217464
 31
0.0
  0
LINE
  5
22c
100
AcDbEntity
  8
Layer_1
 62
7
100
AcDbLine
 10
59.491772
 20
258.217464
 30
0.0
 11
59.491772
 21
258.312684
 31
0.0
  0
SPLINE
  5
22d
100
AcDbEntity
  8
Layer_1
 62
7
100
AcDbSpline
 70
8
 71
3
 72
8
 73
4
 74
0
 40
0
 40
0
 40
0
 40
0
 40
1
 40
1
 40
1
 40
1
 10
59.491772
 20
258.312684
 30
0.0
 10
59.698477
 20
258.564963
 30
0.0
 10
59.934480
 20
258.883973
 30
0.0
 10
60.199780
 20
259.269716
 30
0.0
  0
SPLINE
  5
22e
100
AcDbEntity
  8
Layer_1
 62
7
100
AcDbSpline
 70
8
 71
3
 72
8
 73
4
 74
0
 40
0
 40
0
 40
0
 40
0
 40
1
 40
1
 40
1
 40
1
 10
60.199780
 20
259.269716
 30
0.0
 10
60.466707
 20
259.657085
 30
0.0
 10
60.635164
 20
259.932150
 30
0.0
 10
60.705151
 20
260.094911
 30
0.0
  0
SPLINE
  5
22f
100
AcDbEntity
  8
Layer_1
 62
7
100
AcDbSpline
 70
8
 71
3
 72
8
 73
4
 74
0
 40
0
 40
0
 40
0
 40
0
 40
1
 40
1
 40
1
 40
1
 10
60.705151
 20
260.094911
 30
0.0
 10
60.775138
 20
260.257671
 30
0.0
 10
60.810131
 20
260.415549
 30
0.0
 10
60.810131
 20
260.568544
 30
0.0
  0
SPLINE
  5
230
100
AcDbEntity
  8
Layer_1
 62
7
100
AcDbSpline
 70
8
 71
3
 72
8
 73
4
 74
0
 40
0
 40
0
 40
0
 40
0
 40
1
 40
1
 40
1
 40
1
 10
60.810131
 20
260.568544
 30
0.0
 10
60.810131
 20
260.702007
 30
0.0
 10
60.765372
 20
260.816753
 30
0.0
 10
60.675854
 20
260.912782
 30
0.0
  0
SPLINE
  5
231
100
AcDbEntity
  8
Layer_1
 62
7
100
AcDbSpline
 70
8
 71
3
 72
8
 73
4
 74
0
 40
0
 40
0
 40
0
 40
0
 40
1
 40
1
 40
1
 40
1
 10
60.675854
 20
260.912782
 30
0.0
 10
60.587963
 20
261.008811
 30
0.0
 10
60.481355
 20
261.056825
 30
0.0
 10
60.356030
 20
261.056825
 30
0.0
  0
SPLINE
  5
232
100
AcDbEntity
  8
Layer_1
 62
7
100
AcDbSpline
 70
8
 71
3
 72
8
 73
4
 74
0
 40
0
 40
0
 40
0
 40
0
 40
1
 40
1
 40
1
 40
1
 10
60.356030
 20
261.056825
 30
0.0
 10
60.107006
 20
261.056825
 30
0.0
 10
59.833568
 20
260.915223
 30
0.0
 10
59.535717
 20
260.632020
 30
0.0
  0
LINE
  5
233
100
AcDbEntity
  8
Layer_1
 62
7
100
AcDbLine
 10
59.535717
 20
260.632020
 30
0.0
 11
59.535717
 21
261.347352
 31
0.0
  0
SPLINE
  5
234
100
AcDbEntity
  8
Layer_1
 62
7
100
AcDbSpline
 70
8
 71
3
 72
8
 73
4
 74
0
 40
0
 40
0
 40
0
 40
0
 40
1
 40
1
 40
1
 40
1
 10
59.535717
 20
261.347352
 30
0.0
 10
59.869376
 20
261.563823
 30
0.0
 10
60.187572
 20
261.672059
 30
0.0
 10
60.490307
 20
261.672059
 30
0.0
  0
SPLINE
  5
235
100
AcDbEntity
  8
Layer_1
 62
7
100
AcDbSpline
 70
8
 71
3
 72
8
 73
4
 74
0
 40
0
 40
0
 40
0
 40
0
 40
1
 40
1
 40
1
 40
1
 10
60.490307
 20
261.672059
 30
0.0
 10
60.825594
 20
261.672059
 30
0.0
 10
61.089265
 20
261.585796
 30
0.0
 10
61.281322
 20
261.413270
 30
0.0
  0
SPLINE
  5
236
100
AcDbEntity
  8
Layer_1
 62
7
100
AcDbSpline
 70
8
 71
3
 72
8
 73
4
 74
0
 40
0
 40
0
 40
0
 40
0
 40
1
 40
1
 40
1
 40
1
 10
61.281322
 20
261.413270
 30
0.0
 10
61.475007
 20
261.240744
 30
0.0
 10
61.571850
 20
261.003928
 30
0.0
 10
61.571850
 20
260.702821
 30
0.0
  0
SPLINE
  5
237
100
AcDbEntity
  8
Layer_1
 62
7
100
AcDbSpline
 70
8
 71
3
 72
8
 73
4
 74
0
 40
0
 40
0
 40
0
 40
0
 40
1
 40
1
 40
1
 40
1
 10
61.571850
 20
260.702821
 30
0.0
 10
61.571850
 20
260.291037
 30
0.0
 10
61.263419
 20
259.694520
 30
0.0
 10
60.646557
 20
258.913270
 30
0.0
  0
LINE
  5
238
100
AcDbEntity
  8
Layer_1
 62
7
100
AcDbLine
 10
60.646557
 20
258.913270
 30
0.0
 11
61.745190
 21
258.913265
 31
0.0
  0
LINE
  5
239
100
AcDbEntity
  8
Layer_1
 62
7
100
AcDbLine
 10
34.277996
 20
266.966732
 30
0.0
 11
34.277996
 21
266.280697
 31
0.0
  0
LINE
  5
23a
100
AcDbEntity
  8
Layer_1
 62
7
100
AcDbLine
 10
34.277996
 20
266.280697
 30
0.0
 11
33.186687
 21
266.280697
 31
0.0
  0
LINE
  5
23b
100
AcDbEntity
  8
Layer_1
 62
7
100
AcDbLine
 10
33.186687
 20
266.280697
 30
0.0
 11
33.186687
 21
265.645931
 31
0.0
  0
SPLINE
  5
23c
100
AcDbEntity
  8
Layer_1
 62
7
100
AcDbSpline
 70
8
 71
3
 72
8
 73
4
 74
0
 40
0
 40
0
 40
0
 40
0
 40
1
 40
1
 40
1
 40
1
 10
33.186687
 20
265.645931
 30
0.0
 10
33.551270
 20
265.670344
 30
0.0
 10
33.843425
 20
265.580012
 30
0.0
 10
34.063152
 20
265.374935
 30
0.0
  0
SPLINE
  5
23d
100
AcDbEntity
  8
Layer_1
 62
7
100
AcDbSpline
 70
8
 71
3
 72
8
 73
4
 74
0
 40
0
 40
0
 40
0
 40
0
 40
1
 40
1
 40
1
 40
1
 10
34.063152
 20
265.374935
 30
0.0
 10
34.282879
 20
265.169857
 30
0.0
 10
34.392742
 20
264.910254
 30
0.0
 10
34.392742
 20
264.596127
 30
0.0
  0
SPLINE
  5
23e
100
AcDbEntity
  8
Layer_1
 62
7
100
AcDbSpline
 70
8
 71
3
 72
8
 73
4
 74
0
 40
0
 40
0
 40
0
 40
0
 40
1
 40
1
 40
1
 40
1
 10
34.392742
 20
264.596127
 30
0.0
 10
34.392742
 20
264.267350
 30
0.0
 10
34.280437
 20
264.004492
 30
0.0
 10
34.055828
 20
263.807552
 30
0.0
  0
SPLINE
  5
23f
100
AcDbEntity
  8
Layer_1
 62
7
100
AcDbSpline
 70
8
 71
3
 72
8
 73
4
 74
0
 40
0
 40
0
 40
0
 40
0
 40
1
 40
1
 40
1
 40
1
 10
34.055828
 20
263.807552
 30
0.0
 10
33.832846
 20
263.610612
 30
0.0
 10
33.533367
 20
263.512142
 30
0.0
 10
33.157391
 20
263.512142
 30
0.0
  0
SPLINE
  5
240
100
AcDbEntity
  8
Layer_1
 62
7
100
AcDbSpline
 70
8
 71
3
 72
8
 73
4
 74
0
 40
0
 40
0
 40
0
 40
0
 40
1
 40
1
 40
1
 40
1
 10
33.157391
 20
263.512142
 30
0.0
 10
32.826987
 20
263.512142
 30
0.0
 10
32.551922
 20
263.573177
 30
0.0
 10
32.332195
 20
263.695248
 30
0.0
  0
LINE
  5
241
100
AcDbEntity
  8
Layer_1
 62
7
100
AcDbLine
 10
32.332195
 20
263.695248
 30
0.0
 11
32.332195
 21
264.315365
 31
0.0
  0
SPLINE
  5
242
100
AcDbEntity
  8
Layer_1
 62
7
100
AcDbSpline
 70
8
 71
3
 72
8
 73
4
 74
0
 40
0
 40
0
 40
0
 40
0
 40
1
 40
1
 40
1
 40
1
 10
32.332195
 20
264.315365
 30
0.0
 10
32.594240
 20
264.168880
 30
0.0
 10
32.835939
 20
264.095638
 30
0.0
 10
33.057293
 20
264.095638
 30
0.0
  0
SPLINE
  5
243
100
AcDbEntity
  8
Layer_1
 62
7
100
AcDbSpline
 70
8
 71
3
 72
8
 73
4
 74
0
 40
0
 40
0
 40
0
 40
0
 40
1
 40
1
 40
1
 40
1
 10
33.057293
 20
264.095638
 30
0.0
 10
33.213543
 20
264.095638
 30
0.0
 10
33.342124
 20
264.140397
 30
0.0
 10
33.443035
 20
264.229916
 30
0.0
  0
SPLINE
  5
244
100
AcDbEntity
  8
Layer_1
 62
7
100
AcDbSpline
 70
8
 71
3
 72
8
 73
4
 74
0
 40
0
 40
0
 40
0
 40
0
 40
1
 40
1
 40
1
 40
1
 10
33.443035
 20
264.229916
 30
0.0
 10
33.545574
 20
264.321061
 30
0.0
 10
33.596844
 20
264.434993
 30
0.0
 10
33.596844
 20
264.571712
 30
0.0
  0
SPLINE
  5
245
100
AcDbEntity
  8
Layer_1
 62
7
100
AcDbSpline
 70
8
 71
3
 72
8
 73
4
 74
0
 40
0
 40
0
 40
0
 40
0
 40
1
 40
1
 40
1
 40
1
 10
33.596844
 20
264.571712
 30
0.0
 10
33.596844
 20
264.723079
 30
0.0
 10
33.534995
 20
264.842708
 30
0.0
 10
33.411297
 20
264.930599
 30
0.0
  0
SPLINE
  5
246
100
AcDbEntity
  8
Layer_1
 62
7
100
AcDbSpline
 70
8
 71
3
 72
8
 73
4
 74
0
 40
0
 40
0
 40
0
 40
0
 40
1
 40
1
 40
1
 40
1
 10
33.411297
 20
264.930599
 30
0.0
 10
33.287599
 20
265.018490
 30
0.0
 10
33.115887
 20
265.062435
 30
0.0
 10
32.896160
 20
265.062435
 30
0.0
  0
SPLINE
  5
247
100
AcDbEntity
  8
Layer_1
 62
7
100
AcDbSpline
 70
8
 71
3
 72
8
 73
4
 74
0
 40
0
 40
0
 40
0
 40
0
 40
1
 40
1
 40
1
 40
1
 10
32.896160
 20
265.062435
 30
0.0
 10
32.775717
 20
265.062435
 30
0.0
 10
32.646323
 20
265.048602
 30
0.0
 10
32.507977
 20
265.020935
 30
0.0
  0
LINE
  5
248
100
AcDbEntity
  8
Layer_1
 62
7
100
AcDbLine
 10
32.507977
 20
265.020935
 30
0.0
 11
32.507977
 21
266.966736
 31
0.0
  0
LINE
  5
249
100
AcDbEntity
  8
Layer_1
 62
7
100
AcDbLine
 10
32.507977
 20
266.966736
 30
0.0
 11
34.277996
 21
266.966732
 31
0.0
  0
LINE
  5
24a
100
AcDbEntity
  8
Layer_1
 62
7
100
AcDbLine
 10
28.849728
 20
258.028759
 30
0.0
 11
28.061153
 21
256.739697
 31
0.0
  0
SPLINE
  5
24b
100
AcDbEntity
  8
Layer_1
 62
7
100
AcDbSpline
 70
8
 71
3
 72
8
 73
4
 74
0
 40
0
 40
0
 40
0
 40
0
 40
1
 40
1
 40
1
 40
1
 10
28.061153
 20
256.739697
 30
0.0
 10
28.136023
 20
256.759230
 30
0.0
 10
28.211707
 20
256.768997
 30
0.0
 10
28.288204
 20
256.768997
 30
0.0
  0
SPLINE
  5
24c
100
AcDbEntity
  8
Layer_1
 62
7
100
AcDbSpline
 70
8
 71
3
 72
8
 73
4
 74
0
 40
0
 40
0
 40
0
 40
0
 40
1
 40
1
 40
1
 40
1
 10
28.288204
 20
256.768997
 30
0.0
 10
28.543738
 20
256.768997
 30
0.0
 10
28.761837
 20
256.670527
 30
0.0
 10
28.942501
 20
256.473587
 30
0.0
  0
SPLINE
  5
24d
100
AcDbEntity
  8
Layer_1
 62
7
100
AcDbSpline
 70
8
 71
3
 72
8
 73
4
 74
0
 40
0
 40
0
 40
0
 40
0
 40
1
 40
1
 40
1
 40
1
 10
28.942501
 20
256.473587
 30
0.0
 10
29.124793
 20
256.276647
 30
0.0
 10
29.215939
 20
256.017044
 30
0.0
 10
29.215939
 20
255.694779
 30
0.0
  0
SPLINE
  5
24e
100
AcDbEntity
  8
Layer_1
 62
7
100
AcDbSpline
 70
8
 71
3
 72
8
 73
4
 74
0
 40
0
 40
0
 40
0
 40
0
 40
1
 40
1
 40
1
 40
1
 10
29.215939
 20
255.694779
 30
0.0
 10
29.215939
 20
255.361120
 30
0.0
 10
29.108517
 20
255.083613
 30
0.0
 10
28.893673
 20
254.862259
 30
0.0
  0
SPLINE
  5
24f
100
AcDbEntity
  8
Layer_1
 62
7
100
AcDbSpline
 70
8
 71
3
 72
8
 73
4
 74
0
 40
0
 40
0
 40
0
 40
0
 40
1
 40
1
 40
1
 40
1
 10
28.893673
 20
254.862259
 30
0.0
 10
28.678829
 20
254.640905
 30
0.0
 10
28.409460
 20
254.530228
 30
0.0
 10
28.085567
 20
254.530228
 30
0.0
  0
SPLINE
  5
250
100
AcDbEntity
  8
Layer_1
 62
7
100
AcDbSpline
 70
8
 71
3
 72
8
 73
4
 74
0
 40
0
 40
0
 40
0
 40
0
 40
1
 40
1
 40
1
 40
1
 10
28.085567
 20
254.530228
 30
0.0
 10
27.751908
 20
254.530228
 30
0.0
 10
27.480099
 20
254.641719
 30
0.0
 10
27.270138
 20
254.864701
 30
0.0
  0
SPLINE
  5
251
100
AcDbEntity
  8
Layer_1
 62
7
100
AcDbSpline
 70
8
 71
3
 72
8
 73
4
 74
0
 40
0
 40
0
 40
0
 40
0
 40
1
 40
1
 40
1
 40
1
 10
27.270138
 20
254.864701
 30
0.0
 10
27.060177
 20
255.089310
 30
0.0
 10
26.955196
 20
255.380651
 30
0.0
 10
26.955196
 20
255.738724
 30
0.0
  0
SPLINE
  5
252
100
AcDbEntity
  8
Layer_1
 62
7
100
AcDbSpline
 70
8
 71
3
 72
8
 73
4
 74
0
 40
0
 40
0
 40
0
 40
0
 40
1
 40
1
 40
1
 40
1
 10
26.955196
 20
255.738724
 30
0.0
 10
26.955196
 20
256.127721
 30
0.0
 10
27.110632
 20
256.572871
 30
0.0
 10
27.421505
 20
257.074173
 30
0.0
  0
LINE
  5
253
100
AcDbEntity
  8
Layer_1
 62
7
100
AcDbLine
 10
27.421505
 20
257.074173
 30
0.0
 11
28.009884
 21
258.028763
 31
0.0
  0
LINE
  5
254
100
AcDbEntity
  8
Layer_1
 62
7
100
AcDbLine
 10
28.009884
 20
258.028763
 30
0.0
 11
28.849728
 21
258.028759
 31
0.0
  0
SPLINE
  5
255
100
AcDbEntity
  8
Layer_1
 62
7
100
AcDbSpline
 70
8
 71
3
 72
8
 73
4
 74
0
 40
0
 40
0
 40
0
 40
0
 40
1
 40
1
 40
1
 40
1
 10
28.100216
 20
255.169872
 30
0.0
 10
28.217403
 20
255.169872
 30
0.0
 10
28.310991
 20
255.214631
 30
0.0
 10
28.380978
 20
255.304150
 30
0.0
  0
SPLINE
  5
256
100
AcDbEntity
  8
Layer_1
 62
7
100
AcDbSpline
 70
8
 71
3
 72
8
 73
4
 74
0
 40
0
 40
0
 40
0
 40
0
 40
1
 40
1
 40
1
 40
1
 10
28.380978
 20
255.304150
 30
0.0
 10
28.450965
 20
255.395295
 30
0.0
 10
28.485958
 20
255.518993
 30
0.0
 10
28.485958
 20
255.675243
 30
0.0
  0
SPLINE
  5
257
100
AcDbEntity
  8
Layer_1
 62
7
100
AcDbSpline
 70
8
 71
3
 72
8
 73
4
 74
0
 40
0
 40
0
 40
0
 40
0
 40
1
 40
1
 40
1
 40
1
 10
28.485958
 20
255.675243
 30
0.0
 10
28.485958
 20
255.828238
 30
0.0
 10
28.450151
 20
255.951123
 30
0.0
 10
28.378536
 20
256.043896
 30
0.0
  0
SPLINE
  5
258
100
AcDbEntity
  8
Layer_1
 62
7
100
AcDbSpline
 70
8
 71
3
 72
8
 73
4
 74
0
 40
0
 40
0
 40
0
 40
0
 40
1
 40
1
 40
1
 40
1
 10
28.378536
 20
256.043896
 30
0.0
 10
28.306921
 20
256.136669
 30
0.0
 10
28.212520
 20
256.183056
 30
0.0
 10
28.095333
 20
256.183056
 30
0.0
  0
SPLINE
  5
259
100
AcDbEntity
  8
Layer_1
 62
7
100
AcDbSpline
 70
8
 71
3
 72
8
 73
4
 74
0
 40
0
 40
0
 40
0
 40
0
 40
1
 40
1
 40
1
 40
1
 10
28.095333
 20
256.183056
 30
0.0
 10
27.978146
 20
256.183056
 30
0.0
 10
27.885372
 20
256.136669
 30
0.0
 10
27.817013
 20
256.043896
 30
0.0
  0
SPLINE
  5
25a
100
AcDbEntity
  8
Layer_1
 62
7
100
AcDbSpline
 70
8
 71
3
 72
8
 73
4
 74
0
 40
0
 40
0
 40
0
 40
0
 40
1
 40
1
 40
1
 40
1
 10
27.817013
 20
256.043896
 30
0.0
 10
27.748654
 20
255.951123
 30
0.0
 10
27.714474
 20
255.824169
 30
0.0
 10
27.714474
 20
255.663036
 30
0.0
  0
SPLINE
  5
25b
100
AcDbEntity
  8
Layer_1
 62
7
100
AcDbSpline
 70
8
 71
3
 72
8
 73
4
 74
0
 40
0
 40
0
 40
0
 40
0
 40
1
 40
1
 40
1
 40
1
 10
27.714474
 20
255.663036
 30
0.0
 10
27.714474
 20
255.506786
 30
0.0
 10
27.748654
 20
255.385530
 30
0.0
 10
27.817013
 20
255.299267
 30
0.0
  0
SPLINE
  5
25c
100
AcDbEntity
  8
Layer_1
 62
7
100
AcDbSpline
 70
8
 71
3
 72
8
 73
4
 74
0
 40
0
 40
0
 40
0
 40
0
 40
1
 40
1
 40
1
 40
1
 10
27.817013
 20
255.299267
 30
0.0
 10
27.885372
 20
255.213004
 30
0.0
 10
27.979773
 20
255.169872
 30
0.0
 10
28.100216
 20
255.169872
 30
0.0
  0
LINE
  5
25d
100
AcDbEntity
  8
Layer_1
 62
7
100
AcDbLine
 10
28.100216
 20
255.169872
 30
0.0
 11
28.100216
 21
255.169872
 31
0.0
  0
LINE
  5
25e
100
AcDbEntity
  8
Layer_1
 62
7
100
AcDbLine
 10
53.142384
 20
267.101284
 30
0.0
 11
53.142384
 21
267.701870
 31
0.0
  0
SPLINE
  5
25f
100
AcDbEntity
  8
Layer_1
 62
7
100
AcDbSpline
 70
8
 71
3
 72
8
 73
4
 74
0
 40
0
 40
0
 40
0
 40
0
 40
1
 40
1
 40
1
 40
1
 10
53.142384
 20
267.701870
 30
0.0
 10
53.283985
 20
267.701870
 30
0.0
 10
53.397104
 20
267.741746
 30
0.0
 10
53.481739
 20
267.821499
 30
0.0
  0
SPLINE
  5
260
100
AcDbEntity
  8
Layer_1
 62
7
100
AcDbSpline
 70
8
 71
3
 72
8
 73
4
 74
0
 40
0
 40
0
 40
0
 40
0
 40
1
 40
1
 40
1
 40
1
 10
53.481739
 20
267.821499
 30
0.0
 10
53.568002
 20
267.901252
 30
0.0
 10
53.611134
 20
267.996466
 30
0.0
 10
53.611134
 20
268.107143
 30
0.0
  0
SPLINE
  5
261
100
AcDbEntity
  8
Layer_1
 62
7
100
AcDbSpline
 70
8
 71
3
 72
8
 73
4
 74
0
 40
0
 40
0
 40
0
 40
0
 40
1
 40
1
 40
1
 40
1
 10
53.611134
 20
268.107143
 30
0.0
 10
53.611134
 20
268.221076
 30
0.0
 10
53.565561
 20
268.315477
 30
0.0
 10
53.474415
 20
268.390347
 30
0.0
  0
SPLINE
  5
262
100
AcDbEntity
  8
Layer_1
 62
7
100
AcDbSpline
 70
8
 71
3
 72
8
 73
4
 74
0
 40
0
 40
0
 40
0
 40
0
 40
1
 40
1
 40
1
 40
1
 10
53.474415
 20
268.390347
 30
0.0
 10
53.383269
 20
268.465216
 30
0.0
 10
53.267709
 20
268.502651
 30
0.0
 10
53.127735
 20
268.502651
 30
0.0
  0
SPLINE
  5
263
100
AcDbEntity
  8
Layer_1
 62
7
100
AcDbSpline
 70
8
 71
3
 72
8
 73
4
 74
0
 40
0
 40
0
 40
0
 40
0
 40
1
 40
1
 40
1
 40
1
 10
53.127735
 20
268.502651
 30
0.0
 10
52.937306
 20
268.502651
 30
0.0
 10
52.728972
 20
268.447313
 30
0.0
 10
52.502735
 20
268.336636
 30
0.0
  0
LINE
  5
264
100
AcDbEntity
  8
Layer_1
 62
7
100
AcDbLine
 10
52.502735
 20
268.336636
 30
0.0
 11
52.502735
 21
268.937222
 31
0.0
  0
SPLINE
  5
265
100
AcDbEntity
  8
Layer_1
 62
7
100
AcDbSpline
 70
8
 71
3
 72
8
 73
4
 74
0
 40
0
 40
0
 40
0
 40
0
 40
1
 40
1
 40
1
 40
1
 10
52.502735
 20
268.937222
 30
0.0
 10
52.728972
 20
269.036505
 30
0.0
 10
52.988575
 20
269.086147
 30
0.0
 10
53.281544
 20
269.086147
 30
0.0
  0
SPLINE
  5
266
100
AcDbEntity
  8
Layer_1
 62
7
100
AcDbSpline
 70
8
 71
3
 72
8
 73
4
 74
0
 40
0
 40
0
 40
0
 40
0
 40
1
 40
1
 40
1
 40
1
 10
53.281544
 20
269.086147
 30
0.0
 10
53.605437
 20
269.086147
 30
0.0
 10
53.868295
 20
269.008022
 30
0.0
 10
54.070118
 20
268.851772
 30
0.0
  0
SPLINE
  5
267
100
AcDbEntity
  8
Layer_1
 62
7
100
AcDbSpline
 70
8
 71
3
 72
8
 73
4
 74
0
 40
0
 40
0
 40
0
 40
0
 40
1
 40
1
 40
1
 40
1
 10
54.070118
 20
268.851772
 30
0.0
 10
54.271941
 20
268.697150
 30
0.0
 10
54.372852
 20
268.496955
 30
0.0
 10
54.372852
 20
268.251186
 30
0.0
  0
SPLINE
  5
268
100
AcDbEntity
  8
Layer_1
 62
7
100
AcDbSpline
 70
8
 71
3
 72
8
 73
4
 74
0
 40
0
 40
0
 40
0
 40
0
 40
1
 40
1
 40
1
 40
1
 10
54.372852
 20
268.251186
 30
0.0
 10
54.372852
 20
267.911017
 30
0.0
 10
54.204395
 20
267.648159
 30
0.0
 10
53.867481
 20
267.462612
 30
0.0
  0
SPLINE
  5
269
100
AcDbEntity
  8
Layer_1
 62
7
100
AcDbSpline
 70
8
 71
3
 72
8
 73
4
 74
0
 40
0
 40
0
 40
0
 40
0
 40
1
 40
1
 40
1
 40
1
 10
53.867481
 20
267.462612
 30
0.0
 10
54.266244
 20
267.306362
 30
0.0
 10
54.465626
 20
267.014207
 30
0.0
 10
54.465626
 20
266.586147
 30
0.0
  0
SPLINE
  5
26a
100
AcDbEntity
  8
Layer_1
 62
7
100
AcDbSpline
 70
8
 71
3
 72
8
 73
4
 74
0
 40
0
 40
0
 40
0
 40
0
 40
1
 40
1
 40
1
 40
1
 10
54.465626
 20
266.586147
 30
0.0
 10
54.465626
 20
266.283413
 30
0.0
 10
54.355763
 20
266.040900
 30
0.0
 10
54.136036
 20
265.858608
 30
0.0
  0
SPLINE
  5
26b
100
AcDbEntity
  8
Layer_1
 62
7
100
AcDbSpline
 70
8
 71
3
 72
8
 73
4
 74
0
 40
0
 40
0
 40
0
 40
0
 40
1
 40
1
 40
1
 40
1
 10
54.136036
 20
265.858608
 30
0.0
 10
53.916309
 20
265.677944
 30
0.0
 10
53.621713
 20
265.587612
 30
0.0
 10
53.252247
 20
265.587612
 30
0.0
  0
SPLINE
  5
26c
100
AcDbEntity
  8
Layer_1
 62
7
100
AcDbSpline
 70
8
 71
3
 72
8
 73
4
 74
0
 40
0
 40
0
 40
0
 40
0
 40
1
 40
1
 40
1
 40
1
 10
53.252247
 20
265.587612
 30
0.0
 10
52.951140
 20
265.587612
 30
0.0
 10
52.672820
 20
265.651902
 30
0.0
 10
52.417286
 20
265.780483
 30
0.0
  0
LINE
  5
26d
100
AcDbEntity
  8
Layer_1
 62
7
100
AcDbLine
 10
52.417286
 20
265.780483
 30
0.0
 11
52.417286
 21
266.442104
 31
0.0
  0
SPLINE
  5
26e
100
AcDbEntity
  8
Layer_1
 62
7
100
AcDbSpline
 70
8
 71
3
 72
8
 73
4
 74
0
 40
0
 40
0
 40
0
 40
0
 40
1
 40
1
 40
1
 40
1
 10
52.417286
 20
266.442104
 30
0.0
 10
52.674447
 20
266.261440
 30
0.0
 10
52.914519
 20
266.171108
 30
0.0
 10
53.137501
 20
266.171108
 30
0.0
  0
SPLINE
  5
26f
100
AcDbEntity
  8
Layer_1
 62
7
100
AcDbSpline
 70
8
 71
3
 72
8
 73
4
 74
0
 40
0
 40
0
 40
0
 40
0
 40
1
 40
1
 40
1
 40
1
 10
53.137501
 20
266.171108
 30
0.0
 10
53.295378
 20
266.171108
 30
0.0
 10
53.423959
 20
266.212612
 30
0.0
 10
53.523243
 20
266.295620
 30
0.0
  0
SPLINE
  5
270
100
AcDbEntity
  8
Layer_1
 62
7
100
AcDbSpline
 70
8
 71
3
 72
8
 73
4
 74
0
 40
0
 40
0
 40
0
 40
0
 40
1
 40
1
 40
1
 40
1
 10
53.523243
 20
266.295620
 30
0.0
 10
53.622527
 20
266.380255
 30
0.0
 10
53.672169
 20
266.489305
 30
0.0
 10
53.672169
 20
266.622768
 30
0.0
  0
SPLINE
  5
271
100
AcDbEntity
  8
Layer_1
 62
7
100
AcDbSpline
 70
8
 71
3
 72
8
 73
4
 74
0
 40
0
 40
0
 40
0
 40
0
 40
1
 40
1
 40
1
 40
1
 10
53.672169
 20
266.622768
 30
0.0
 10
53.672169
 20
266.756232
 30
0.0
 10
53.624155
 20
266.867723
 30
0.0
 10
53.528126
 20
266.957241
 30
0.0
  0
SPLINE
  5
272
100
AcDbEntity
  8
Layer_1
 62
7
100
AcDbSpline
 70
8
 71
3
 72
8
 73
4
 74
0
 40
0
 40
0
 40
0
 40
0
 40
1
 40
1
 40
1
 40
1
 10
53.528126
 20
266.957241
 30
0.0
 10
53.433725
 20
267.046759
 30
0.0
 10
53.305144
 20
267.094773
 30
0.0
 10
53.142384
 20
267.101284
 30
0.0
  0
LINE
  5
273
100
AcDbEntity
  8
Layer_1
 62
7
100
AcDbLine
 10
53.142384
 20
267.101284
 30
0.0
 11
53.142384
 21
267.101284
 31
0.0
  0
SPLINE
  5
274
100
AcDbEntity
  8
Layer_1
 62
7
100
AcDbSpline
 70
8
 71
3
 72
8
 73
4
 74
0
 40
0
 40
0
 40
0
 40
0
 40
1
 40
1
 40
1
 40
1
 10
55.269779
 20
239.515621
 30
0.0
 10
55.631107
 20
239.515621
 30
0.0
 10
55.912683
 20
239.360185
 30
0.0
 10
56.114506
 20
239.049313
 30
0.0
  0
SPLINE
  5
275
100
AcDbEntity
  8
Layer_1
 62
7
100
AcDbSpline
 70
8
 71
3
 72
8
 73
4
 74
0
 40
0
 40
0
 40
0
 40
0
 40
1
 40
1
 40
1
 40
1
 10
56.114506
 20
239.049313
 30
0.0
 10
56.317957
 20
238.738440
 30
0.0
 10
56.419682
 20
238.316077
 30
0.0
 10
56.419682
 20
237.782223
 30
0.0
  0
SPLINE
  5
276
100
AcDbEntity
  8
Layer_1
 62
7
100
AcDbSpline
 70
8
 71
3
 72
8
 73
4
 74
0
 40
0
 40
0
 40
0
 40
0
 40
1
 40
1
 40
1
 40
1
 10
56.419682
 20
237.782223
 30
0.0
 10
56.419682
 20
237.227210
 30
0.0
 10
56.321212
 20
236.794267
 30
0.0
 10
56.124271
 20
236.483395
 30
0.0
  0
SPLINE
  5
277
100
AcDbEntity
  8
Layer_1
 62
7
100
AcDbSpline
 70
8
 71
3
 72
8
 73
4
 74
0
 40
0
 40
0
 40
0
 40
0
 40
1
 40
1
 40
1
 40
1
 10
56.124271
 20
236.483395
 30
0.0
 10
55.927331
 20
236.172522
 30
0.0
 10
55.645756
 20
236.017086
 30
0.0
 10
55.279545
 20
236.017086
 30
0.0
  0
SPLINE
  5
278
100
AcDbEntity
  8
Layer_1
 62
7
100
AcDbSpline
 70
8
 71
3
 72
8
 73
4
 74
0
 40
0
 40
0
 40
0
 40
0
 40
1
 40
1
 40
1
 40
1
 10
55.279545
 20
236.017086
 30
0.0
 10
54.908451
 20
236.017086
 30
0.0
 10
54.619551
 20
236.171708
 30
0.0
 10
54.412846
 20
236.480953
 30
0.0
  0
SPLINE
  5
279
100
AcDbEntity
  8
Layer_1
 62
7
100
AcDbSpline
 70
8
 71
3
 72
8
 73
4
 74
0
 40
0
 40
0
 40
0
 40
0
 40
1
 40
1
 40
1
 40
1
 10
54.412846
 20
236.480953
 30
0.0
 10
54.207767
 20
236.790198
 30
0.0
 10
54.105228
 20
237.218258
 30
0.0
 10
54.105228
 20
237.765133
 30
0.0
  0
SPLINE
  5
27a
100
AcDbEntity
  8
Layer_1
 62
7
100
AcDbSpline
 70
8
 71
3
 72
8
 73
4
 74
0
 40
0
 40
0
 40
0
 40
0
 40
1
 40
1
 40
1
 40
1
 10
54.105228
 20
237.765133
 30
0.0
 10
54.105228
 20
238.318518
 30
0.0
 10
54.209395
 20
238.748206
 30
0.0
 10
54.417728
 20
239.054195
 30
0.0
  0
SPLINE
  5
27b
100
AcDbEntity
  8
Layer_1
 62
7
100
AcDbSpline
 70
8
 71
3
 72
8
 73
4
 74
0
 40
0
 40
0
 40
0
 40
0
 40
1
 40
1
 40
1
 40
1
 10
54.417728
 20
239.054195
 30
0.0
 10
54.627689
 20
239.361812
 30
0.0
 10
54.911706
 20
239.515621
 30
0.0
 10
55.269779
 20
239.515621
 30
0.0
  0
LINE
  5
27c
100
AcDbEntity
  8
Layer_1
 62
7
100
AcDbLine
 10
55.269779
 20
239.515621
 30
0.0
 11
55.269779
 21
239.515621
 31
0.0
  0
SPLINE
  5
27d
100
AcDbEntity
  8
Layer_1
 62
7
100
AcDbSpline
 70
8
 71
3
 72
8
 73
4
 74
0
 40
0
 40
0
 40
0
 40
0
 40
1
 40
1
 40
1
 40
1
 10
55.269779
 20
236.656734
 30
0.0
 10
55.406498
 20
236.656734
 30
0.0
 10
55.505782
 20
236.738928
 30
0.0
 10
55.567631
 20
236.903316
 30
0.0
  0
SPLINE
  5
27e
100
AcDbEntity
  8
Layer_1
 62
7
100
AcDbSpline
 70
8
 71
3
 72
8
 73
4
 74
0
 40
0
 40
0
 40
0
 40
0
 40
1
 40
1
 40
1
 40
1
 10
55.567631
 20
236.903316
 30
0.0
 10
55.629478
 20
237.069332
 30
0.0
 10
55.660401
 20
237.380205
 30
0.0
 10
55.660401
 20
237.835934
 30
0.0
  0
SPLINE
  5
27f
100
AcDbEntity
  8
Layer_1
 62
7
100
AcDbSpline
 70
8
 71
3
 72
8
 73
4
 74
0
 40
0
 40
0
 40
0
 40
0
 40
1
 40
1
 40
1
 40
1
 10
55.660401
 20
237.835934
 30
0.0
 10
55.660401
 20
238.215165
 30
0.0
 10
55.629478
 20
238.482906
 30
0.0
 10
55.567631
 20
238.639156
 30
0.0
  0
SPLINE
  5
280
100
AcDbEntity
  8
Layer_1
 62
7
100
AcDbSpline
 70
8
 71
3
 72
8
 73
4
 74
0
 40
0
 40
0
 40
0
 40
0
 40
1
 40
1
 40
1
 40
1
 10
55.567631
 20
238.639156
 30
0.0
 10
55.507411
 20
238.797034
 30
0.0
 10
55.406499
 20
238.875973
 30
0.0
 10
55.264896
 20
238.875973
 30
0.0
  0
SPLINE
  5
281
100
AcDbEntity
  8
Layer_1
 62
7
100
AcDbSpline
 70
8
 71
3
 72
8
 73
4
 74
0
 40
0
 40
0
 40
0
 40
0
 40
1
 40
1
 40
1
 40
1
 10
55.264896
 20
238.875973
 30
0.0
 10
55.126550
 20
238.875973
 30
0.0
 10
55.024825
 20
238.798662
 30
0.0
 10
54.959721
 20
238.644039
 30
0.0
  0
SPLINE
  5
282
100
AcDbEntity
  8
Layer_1
 62
7
100
AcDbSpline
 70
8
 71
3
 72
8
 73
4
 74
0
 40
0
 40
0
 40
0
 40
0
 40
1
 40
1
 40
1
 40
1
 10
54.959721
 20
238.644039
 30
0.0
 10
54.896241
 20
238.491044
 30
0.0
 10
54.864501
 20
238.186682
 30
0.0
 10
54.864501
 20
237.730953
 30
0.0
  0
SPLINE
  5
283
100
AcDbEntity
  8
Layer_1
 62
7
100
AcDbSpline
 70
8
 71
3
 72
8
 73
4
 74
0
 40
0
 40
0
 40
0
 40
0
 40
1
 40
1
 40
1
 40
1
 10
54.864501
 20
237.730953
 30
0.0
 10
54.864501
 20
237.348466
 30
0.0
 10
54.896241
 20
237.073401
 30
0.0
 10
54.959721
 20
236.905758
 30
0.0
  0
SPLINE
  5
284
100
AcDbEntity
  8
Layer_1
 62
7
100
AcDbSpline
 70
8
 71
3
 72
8
 73
4
 74
0
 40
0
 40
0
 40
0
 40
0
 40
1
 40
1
 40
1
 40
1
 10
54.959721
 20
236.905758
 30
0.0
 10
55.024828
 20
236.739742
 30
0.0
 10
55.128180
 20
236.656734
 30
0.0
 10
55.269779
 20
236.656734
 30
0.0
  0
LINE
  5
285
100
AcDbEntity
  8
Layer_1
 62
7
100
AcDbLine
 10
55.269779
 20
236.656734
 30
0.0
 11
55.269779
 21
236.656734
 31
0.0
  0
SPLINE
  5
286
100
AcDbEntity
  8
Layer_1
 62
7
100
AcDbSpline
 70
8
 71
3
 72
8
 73
4
 74
0
 40
0
 40
0
 40
0
 40
0
 40
1
 40
1
 40
1
 40
1
 10
34.420528
 20
237.596127
 30
0.0
 10
34.140581
 20
237.771908
 30
0.0
 10
34.000607
 20
238.015234
 30
0.0
 10
34.000607
 20
238.326107
 30
0.0
  0
SPLINE
  5
287
100
AcDbEntity
  8
Layer_1
 62
7
100
AcDbSpline
 70
8
 71
3
 72
8
 73
4
 74
0
 40
0
 40
0
 40
0
 40
0
 40
1
 40
1
 40
1
 40
1
 10
34.000607
 20
238.326107
 30
0.0
 10
34.000607
 20
238.602800
 30
0.0
 10
34.095822
 20
238.825781
 30
0.0
 10
34.286251
 20
238.995052
 30
0.0
  0
SPLINE
  5
288
100
AcDbEntity
  8
Layer_1
 62
7
100
AcDbSpline
 70
8
 71
3
 72
8
 73
4
 74
0
 40
0
 40
0
 40
0
 40
0
 40
1
 40
1
 40
1
 40
1
 10
34.286251
 20
238.995052
 30
0.0
 10
34.476681
 20
239.165951
 30
0.0
 10
34.726518
 20
239.251400
 30
0.0
 10
35.035763
 20
239.251400
 30
0.0
  0
SPLINE
  5
289
100
AcDbEntity
  8
Layer_1
 62
7
100
AcDbSpline
 70
8
 71
3
 72
8
 73
4
 74
0
 40
0
 40
0
 40
0
 40
0
 40
1
 40
1
 40
1
 40
1
 10
35.035763
 20
239.251400
 30
0.0
 10
35.361284
 20
239.251400
 30
0.0
 10
35.619259
 20
239.160254
 30
0.0
 10
35.809689
 20
238.977962
 30
0.0
  0
SPLINE
  5
28a
100
AcDbEntity
  8
Layer_1
 62
7
100
AcDbSpline
 70
8
 71
3
 72
8
 73
4
 74
0
 40
0
 40
0
 40
0
 40
0
 40
1
 40
1
 40
1
 40
1
 10
35.809689
 20
238.977962
 30
0.0
 10
36.000118
 20
238.797298
 30
0.0
 10
36.095333
 20
238.578385
 30
0.0
 10
36.095333
 20
238.321224
 30
0.0
  0
SPLINE
  5
28b
100
AcDbEntity
  8
Layer_1
 62
7
100
AcDbSpline
 70
8
 71
3
 72
8
 73
4
 74
0
 40
0
 40
0
 40
0
 40
0
 40
1
 40
1
 40
1
 40
1
 10
36.095333
 20
238.321224
 30
0.0
 10
36.095333
 20
238.003841
 30
0.0
 10
35.956987
 20
237.762142
 30
0.0
 10
35.680294
 20
237.596127
 30
0.0
  0
SPLINE
  5
28c
100
AcDbEntity
  8
Layer_1
 62
7
100
AcDbSpline
 70
8
 71
3
 72
8
 73
4
 74
0
 40
0
 40
0
 40
0
 40
0
 40
1
 40
1
 40
1
 40
1
 10
35.680294
 20
237.596127
 30
0.0
 10
36.020463
 20
237.420346
 30
0.0
 10
36.190548
 20
237.145280
 30
0.0
 10
36.190548
 20
236.770931
 30
0.0
  0
SPLINE
  5
28d
100
AcDbEntity
  8
Layer_1
 62
7
100
AcDbSpline
 70
8
 71
3
 72
8
 73
4
 74
0
 40
0
 40
0
 40
0
 40
0
 40
1
 40
1
 40
1
 40
1
 10
36.190548
 20
236.770931
 30
0.0
 10
36.190548
 20
236.464942
 30
0.0
 10
36.085568
 20
236.218360
 30
0.0
 10
35.875607
 20
236.031185
 30
0.0
  0
SPLINE
  5
28e
100
AcDbEntity
  8
Layer_1
 62
7
100
AcDbSpline
 70
8
 71
3
 72
8
 73
4
 74
0
 40
0
 40
0
 40
0
 40
0
 40
1
 40
1
 40
1
 40
1
 10
35.875607
 20
236.031185
 30
0.0
 10
35.667274
 20
235.845638
 30
0.0
 10
35.388953
 20
235.752865
 30
0.0
 10
35.040646
 20
235.752865
 30
0.0
  0
SPLINE
  5
28f
100
AcDbEntity
  8
Layer_1
 62
7
100
AcDbSpline
 70
8
 71
3
 72
8
 73
4
 74
0
 40
0
 40
0
 40
0
 40
0
 40
1
 40
1
 40
1
 40
1
 10
35.040646
 20
235.752865
 30
0.0
 10
34.705359
 20
235.752865
 30
0.0
 10
34.431922
 20
235.847266
 30
0.0
 10
34.220333
 20
236.036068
 30
0.0
  0
SPLINE
  5
290
100
AcDbEntity
  8
Layer_1
 62
7
100
AcDbSpline
 70
8
 71
3
 72
8
 73
4
 74
0
 40
0
 40
0
 40
0
 40
0
 40
1
 40
1
 40
1
 40
1
 10
34.220333
 20
236.036068
 30
0.0
 10
34.010372
 20
236.224870
 30
0.0
 10
33.905392
 20
236.468197
 30
0.0
 10
33.905392
 20
236.766048
 30
0.0
  0
SPLINE
  5
291
100
AcDbEntity
  8
Layer_1
 62
7
100
AcDbSpline
 70
8
 71
3
 72
8
 73
4
 74
0
 40
0
 40
0
 40
0
 40
0
 40
1
 40
1
 40
1
 40
1
 10
33.905392
 20
236.766048
 30
0.0
 10
33.905392
 20
237.161556
 30
0.0
 10
34.077104
 20
237.438249
 30
0.0
 10
34.420528
 20
237.596127
 30
0.0
  0
LINE
  5
292
100
AcDbEntity
  8
Layer_1
 62
7
100
AcDbLine
 10
34.420528
 20
237.596127
 30
0.0
 11
34.420528
 21
237.596127
 31
0.0
  0
SPLINE
  5
293
100
AcDbEntity
  8
Layer_1
 62
7
100
AcDbSpline
 70
8
 71
3
 72
8
 73
4
 74
0
 40
0
 40
0
 40
0
 40
0
 40
1
 40
1
 40
1
 40
1
 10
35.055294
 20
237.806087
 30
0.0
 10
35.152950
 20
237.806087
 30
0.0
 10
35.228634
 20
237.849219
 30
0.0
 10
35.282345
 20
237.935482
 30
0.0
  0
SPLINE
  5
294
100
AcDbEntity
  8
Layer_1
 62
7
100
AcDbSpline
 70
8
 71
3
 72
8
 73
4
 74
0
 40
0
 40
0
 40
0
 40
0
 40
1
 40
1
 40
1
 40
1
 10
35.282345
 20
237.935482
 30
0.0
 10
35.337685
 20
238.023373
 30
0.0
 10
35.365355
 20
238.143815
 30
0.0
 10
35.365355
 20
238.296810
 30
0.0
  0
SPLINE
  5
295
100
AcDbEntity
  8
Layer_1
 62
7
100
AcDbSpline
 70
8
 71
3
 72
8
 73
4
 74
0
 40
0
 40
0
 40
0
 40
0
 40
1
 40
1
 40
1
 40
1
 10
35.365355
 20
238.296810
 30
0.0
 10
35.365355
 20
238.599545
 30
0.0
 10
35.258747
 20
238.750912
 30
0.0
 10
35.045530
 20
238.750912
 30
0.0
  0
SPLINE
  5
296
100
AcDbEntity
  8
Layer_1
 62
7
100
AcDbSpline
 70
8
 71
3
 72
8
 73
4
 74
0
 40
0
 40
0
 40
0
 40
0
 40
1
 40
1
 40
1
 40
1
 10
35.045530
 20
238.750912
 30
0.0
 10
34.949501
 20
238.750912
 30
0.0
 10
34.873004
 20
238.709408
 30
0.0
 10
34.816038
 20
238.626400
 30
0.0
  0
SPLINE
  5
297
100
AcDbEntity
  8
Layer_1
 62
7
100
AcDbSpline
 70
8
 71
3
 72
8
 73
4
 74
0
 40
0
 40
0
 40
0
 40
0
 40
1
 40
1
 40
1
 40
1
 10
34.816038
 20
238.626400
 30
0.0
 10
34.759071
 20
238.545020
 30
0.0
 10
34.730588
 20
238.431902
 30
0.0
 10
34.730588
 20
238.287045
 30
0.0
  0
SPLINE
  5
298
100
AcDbEntity
  8
Layer_1
 62
7
100
AcDbSpline
 70
8
 71
3
 72
8
 73
4
 74
0
 40
0
 40
0
 40
0
 40
0
 40
1
 40
1
 40
1
 40
1
 10
34.730588
 20
238.287045
 30
0.0
 10
34.730588
 20
238.138933
 30
0.0
 10
34.759885
 20
238.021745
 30
0.0
 10
34.818478
 20
237.935482
 30
0.0
  0
SPLINE
  5
299
100
AcDbEntity
  8
Layer_1
 62
7
100
AcDbSpline
 70
8
 71
3
 72
8
 73
4
 74
0
 40
0
 40
0
 40
0
 40
0
 40
1
 40
1
 40
1
 40
1
 10
34.818478
 20
237.935482
 30
0.0
 10
34.877071
 20
237.849219
 30
0.0
 10
34.956010
 20
237.806087
 30
0.0
 10
35.055294
 20
237.806087
 30
0.0
  0
LINE
  5
29a
100
AcDbEntity
  8
Layer_1
 62
7
100
AcDbLine
 10
35.055294
 20
237.806087
 30
0.0
 11
35.055294
 21
237.806087
 31
0.0
  0
SPLINE
  5
29b
100
AcDbEntity
  8
Layer_1
 62
7
100
AcDbSpline
 70
8
 71
3
 72
8
 73
4
 74
0
 40
0
 40
0
 40
0
 40
0
 40
1
 40
1
 40
1
 40
1
 10
35.055294
 20
236.250912
 30
0.0
 10
35.167599
 20
236.250912
 30
0.0
 10
35.257931
 20
236.298112
 30
0.0
 10
35.326290
 20
236.392513
 30
0.0
  0
SPLINE
  5
29c
100
AcDbEntity
  8
Layer_1
 62
7
100
AcDbSpline
 70
8
 71
3
 72
8
 73
4
 74
0
 40
0
 40
0
 40
0
 40
0
 40
1
 40
1
 40
1
 40
1
 10
35.326290
 20
236.392513
 30
0.0
 10
35.396277
 20
236.488542
 30
0.0
 10
35.431271
 20
236.616309
 30
0.0
 10
35.431271
 20
236.775814
 30
0.0
  0
SPLINE
  5
29d
100
AcDbEntity
  8
Layer_1
 62
7
100
AcDbSpline
 70
8
 71
3
 72
8
 73
4
 74
0
 40
0
 40
0
 40
0
 40
0
 40
1
 40
1
 40
1
 40
1
 10
35.431271
 20
236.775814
 30
0.0
 10
35.431271
 20
236.943457
 30
0.0
 10
35.396277
 20
237.076107
 30
0.0
 10
35.326290
 20
237.173763
 30
0.0
  0
SPLINE
  5
29e
100
AcDbEntity
  8
Layer_1
 62
7
100
AcDbSpline
 70
8
 71
3
 72
8
 73
4
 74
0
 40
0
 40
0
 40
0
 40
0
 40
1
 40
1
 40
1
 40
1
 10
35.326290
 20
237.173763
 30
0.0
 10
35.257931
 20
237.273047
 30
0.0
 10
35.165971
 20
237.322689
 30
0.0
 10
35.050411
 20
237.322689
 30
0.0
  0
SPLINE
  5
29f
100
AcDbEntity
  8
Layer_1
 62
7
100
AcDbSpline
 70
8
 71
3
 72
8
 73
4
 74
0
 40
0
 40
0
 40
0
 40
0
 40
1
 40
1
 40
1
 40
1
 10
35.050411
 20
237.322689
 30
0.0
 10
34.934851
 20
237.322689
 30
0.0
 10
34.842078
 20
237.274675
 30
0.0
 10
34.772091
 20
237.178646
 30
0.0
  0
SPLINE
  5
2a0
100
AcDbEntity
  8
Layer_1
 62
7
100
AcDbSpline
 70
8
 71
3
 72
8
 73
4
 74
0
 40
0
 40
0
 40
0
 40
0
 40
1
 40
1
 40
1
 40
1
 10
34.772091
 20
237.178646
 30
0.0
 10
34.702104
 20
237.084245
 30
0.0
 10
34.667110
 20
236.957292
 30
0.0
 10
34.667110
 20
236.797787
 30
0.0
  0
SPLINE
  5
2a1
100
AcDbEntity
  8
Layer_1
 62
7
100
AcDbSpline
 70
8
 71
3
 72
8
 73
4
 74
0
 40
0
 40
0
 40
0
 40
0
 40
1
 40
1
 40
1
 40
1
 10
34.667110
 20
236.797787
 30
0.0
 10
34.667110
 20
236.631771
 30
0.0
 10
34.702917
 20
236.499121
 30
0.0
 10
34.774532
 20
236.399837
 30
0.0
  0
SPLINE
  5
2a2
100
AcDbEntity
  8
Layer_1
 62
7
100
AcDbSpline
 70
8
 71
3
 72
8
 73
4
 74
0
 40
0
 40
0
 40
0
 40
0
 40
1
 40
1
 40
1
 40
1
 10
34.774532
 20
236.399837
 30
0.0
 10
34.846147
 20
236.300554
 30
0.0
 10
34.939734
 20
236.250912
 30
0.0
 10
35.055294
 20
236.250912
 30
0.0
  0
LINE
  5
2a3
100
AcDbEntity
  8
Layer_1
 62
7
100
AcDbLine
 10
35.055294
 20
236.250912
 30
0.0
 11
35.055294
 21
236.250912
 31
0.0
  0
LINE
  5
2a4
100
AcDbEntity
  8
Layer_1
 62
7
100
AcDbLine
 10
27.926178
 20
244.176373
 30
0.0
 11
28.841705
 21
246.691021
 31
0.0
  0
LINE
  5
2a5
100
AcDbEntity
  8
Layer_1
 62
7
100
AcDbLine
 10
28.841705
 20
246.691021
 30
0.0
 11
27.581940
 21
246.691021
 31
0.0
  0
LINE
  5
2a6
100
AcDbEntity
  8
Layer_1
 62
7
100
AcDbLine
 10
27.581940
 20
246.691021
 30
0.0
 11
27.581940
 21
247.372173
 31
0.0
  0
LINE
  5
2a7
100
AcDbEntity
  8
Layer_1
 62
7
100
AcDbLine
 10
27.581940
 20
247.372173
 30
0.0
 11
29.837799
 21
247.372173
 31
0.0
  0
LINE
  5
2a8
100
AcDbEntity
  8
Layer_1
 62
7
100
AcDbLine
 10
29.837799
 20
247.372173
 30
0.0
 11
29.837799
 21
247.330673
 31
0.0
  0
LINE
  5
2a9
100
AcDbEntity
  8
Layer_1
 62
7
100
AcDbLine
 10
29.837799
 20
247.330673
 30
0.0
 11
28.607330
 21
243.917587
 31
0.0
  0
LINE
  5
2aa
100
AcDbEntity
  8
Layer_1
 62
7
100
AcDbLine
 10
28.607330
 20
243.917587
 30
0.0
 11
27.926178
 21
244.176373
 31
0.0
  0
LINE
  5
2ab
100
AcDbEntity
  8
Layer_1
 62
7
100
AcDbLine
 10
44.252712
 20
232.904816
 30
0.0
 11
45.038845
 21
234.184113
 31
0.0
  0
SPLINE
  5
2ac
100
AcDbEntity
  8
Layer_1
 62
7
100
AcDbSpline
 70
8
 71
3
 72
8
 73
4
 74
0
 40
0
 40
0
 40
0
 40
0
 40
1
 40
1
 40
1
 40
1
 10
45.038845
 20
234.184113
 30
0.0
 10
44.960720
 20
234.162953
 30
0.0
 10
44.883409
 20
234.152373
 30
0.0
 10
44.806911
 20
234.152373
 30
0.0
  0
SPLINE
  5
2ad
100
AcDbEntity
  8
Layer_1
 62
7
100
AcDbSpline
 70
8
 71
3
 72
8
 73
4
 74
0
 40
0
 40
0
 40
0
 40
0
 40
1
 40
1
 40
1
 40
1
 10
44.806911
 20
234.152373
 30
0.0
 10
44.553005
 20
234.152373
 30
0.0
 10
44.334092
 20
234.256540
 30
0.0
 10
44.150173
 20
234.464873
 30
0.0
  0
SPLINE
  5
2ae
100
AcDbEntity
  8
Layer_1
 62
7
100
AcDbSpline
 70
8
 71
3
 72
8
 73
4
 74
0
 40
0
 40
0
 40
0
 40
0
 40
1
 40
1
 40
1
 40
1
 10
44.150173
 20
234.464873
 30
0.0
 10
43.967882
 20
234.674834
 30
0.0
 10
43.876736
 20
234.927927
 30
0.0
 10
43.876736
 20
235.224151
 30
0.0
  0
SPLINE
  5
2af
100
AcDbEntity
  8
Layer_1
 62
7
100
AcDbSpline
 70
8
 71
3
 72
8
 73
4
 74
0
 40
0
 40
0
 40
0
 40
0
 40
1
 40
1
 40
1
 40
1
 10
43.876736
 20
235.224151
 30
0.0
 10
43.876736
 20
235.557810
 30
0.0
 10
43.985785
 20
235.837757
 30
0.0
 10
44.203884
 20
236.063994
 30
0.0
  0
SPLINE
  5
2b0
100
AcDbEntity
  8
Layer_1
 62
7
100
AcDbSpline
 70
8
 71
3
 72
8
 73
4
 74
0
 40
0
 40
0
 40
0
 40
0
 40
1
 40
1
 40
1
 40
1
 10
44.203884
 20
236.063994
 30
0.0
 10
44.421983
 20
236.290231
 30
0.0
 10
44.691352
 20
236.403350
 30
0.0
 10
45.011990
 20
236.403350
 30
0.0
  0
SPLINE
  5
2b1
100
AcDbEntity
  8
Layer_1
 62
7
100
AcDbSpline
 70
8
 71
3
 72
8
 73
4
 74
0
 40
0
 40
0
 40
0
 40
0
 40
1
 40
1
 40
1
 40
1
 10
45.011990
 20
236.403350
 30
0.0
 10
45.334255
 20
236.403350
 30
0.0
 10
45.601996
 20
236.290231
 30
0.0
 10
45.815212
 20
236.063994
 30
0.0
  0
SPLINE
  5
2b2
100
AcDbEntity
  8
Layer_1
 62
7
100
AcDbSpline
 70
8
 71
3
 72
8
 73
4
 74
0
 40
0
 40
0
 40
0
 40
0
 40
1
 40
1
 40
1
 40
1
 10
45.815212
 20
236.063994
 30
0.0
 10
46.030056
 20
235.837757
 30
0.0
 10
46.137478
 20
235.554554
 30
0.0
 10
46.137478
 20
235.214385
 30
0.0
  0
SPLINE
  5
2b3
100
AcDbEntity
  8
Layer_1
 62
7
100
AcDbSpline
 70
8
 71
3
 72
8
 73
4
 74
0
 40
0
 40
0
 40
0
 40
0
 40
1
 40
1
 40
1
 40
1
 10
46.137478
 20
235.214385
 30
0.0
 10
46.137478
 20
234.810739
 30
0.0
 10
45.987738
 20
234.365589
 30
0.0
 10
45.688259
 20
233.878936
 30
0.0
  0
LINE
  5
2b4
100
AcDbEntity
  8
Layer_1
 62
7
100
AcDbLine
 10
45.688259
 20
233.878936
 30
0.0
 11
45.087673
 21
232.904815
 31
0.0
  0
LINE
  5
2b5
100
AcDbEntity
  8
Layer_1
 62
7
100
AcDbLine
 10
45.087673
 20
232.904815
 30
0.0
 11
44.252712
 21
232.904816
 31
0.0
  0
SPLINE
  5
2b6
100
AcDbEntity
  8
Layer_1
 62
7
100
AcDbSpline
 70
8
 71
3
 72
8
 73
4
 74
0
 40
0
 40
0
 40
0
 40
0
 40
1
 40
1
 40
1
 40
1
 10
44.997341
 20
234.733429
 30
0.0
 10
45.106390
 20
234.733429
 30
0.0
 10
45.196722
 20
234.781443
 30
0.0
 10
45.268337
 20
234.877472
 30
0.0
  0
SPLINE
  5
2b7
100
AcDbEntity
  8
Layer_1
 62
7
100
AcDbSpline
 70
8
 71
3
 72
8
 73
4
 74
0
 40
0
 40
0
 40
0
 40
0
 40
1
 40
1
 40
1
 40
1
 10
45.268337
 20
234.877472
 30
0.0
 10
45.341580
 20
234.973501
 30
0.0
 10
45.378201
 20
235.095571
 30
0.0
 10
45.378201
 20
235.243683
 30
0.0
  0
SPLINE
  5
2b8
100
AcDbEntity
  8
Layer_1
 62
7
100
AcDbSpline
 70
8
 71
3
 72
8
 73
4
 74
0
 40
0
 40
0
 40
0
 40
0
 40
1
 40
1
 40
1
 40
1
 10
45.378201
 20
235.243683
 30
0.0
 10
45.378201
 20
235.404816
 30
0.0
 10
45.344021
 20
235.531769
 30
0.0
 10
45.275661
 20
235.624542
 30
0.0
  0
SPLINE
  5
2b9
100
AcDbEntity
  8
Layer_1
 62
7
100
AcDbSpline
 70
8
 71
3
 72
8
 73
4
 74
0
 40
0
 40
0
 40
0
 40
0
 40
1
 40
1
 40
1
 40
1
 10
45.275661
 20
235.624542
 30
0.0
 10
45.207302
 20
235.717315
 30
0.0
 10
45.114528
 20
235.763702
 30
0.0
 10
44.997341
 20
235.763702
 30
0.0
  0
SPLINE
  5
2ba
100
AcDbEntity
  8
Layer_1
 62
7
100
AcDbSpline
 70
8
 71
3
 72
8
 73
4
 74
0
 40
0
 40
0
 40
0
 40
0
 40
1
 40
1
 40
1
 40
1
 10
44.997341
 20
235.763702
 30
0.0
 10
44.885036
 20
235.763702
 30
0.0
 10
44.791449
 20
235.714874
 30
0.0
 10
44.716579
 20
235.617218
 30
0.0
  0
SPLINE
  5
2bb
100
AcDbEntity
  8
Layer_1
 62
7
100
AcDbSpline
 70
8
 71
3
 72
8
 73
4
 74
0
 40
0
 40
0
 40
0
 40
0
 40
1
 40
1
 40
1
 40
1
 10
44.716579
 20
235.617218
 30
0.0
 10
44.643337
 20
235.521189
 30
0.0
 10
44.606716
 20
235.398305
 30
0.0
 10
44.606716
 20
235.248566
 30
0.0
  0
SPLINE
  5
2bc
100
AcDbEntity
  8
Layer_1
 62
7
100
AcDbSpline
 70
8
 71
3
 72
8
 73
4
 74
0
 40
0
 40
0
 40
0
 40
0
 40
1
 40
1
 40
1
 40
1
 10
44.606716
 20
235.248566
 30
0.0
 10
44.606716
 20
235.095571
 30
0.0
 10
44.642523
 20
234.971059
 30
0.0
 10
44.714138
 20
234.875031
 30
0.0
  0
SPLINE
  5
2bd
100
AcDbEntity
  8
Layer_1
 62
7
100
AcDbSpline
 70
8
 71
3
 72
8
 73
4
 74
0
 40
0
 40
0
 40
0
 40
0
 40
1
 40
1
 40
1
 40
1
 10
44.714138
 20
234.875031
 30
0.0
 10
44.787380
 20
234.780630
 30
0.0
 10
44.881781
 20
234.733429
 30
0.0
 10
44.997341
 20
234.733429
 30
0.0
  0
LINE
  5
2be
100
AcDbEntity
  8
Layer_1
 62
7
100
AcDbLine
 10
44.997341
 20
234.733429
 30
0.0
 11
44.997341
 21
234.733429
 31
0.0
  0
LINE
  5
2bf
100
AcDbEntity
  8
Layer_1
 62
7
100
AcDbLine
 10
43.990322
 20
270.970028
 30
0.0
 11
43.990322
 21
268.899715
 31
0.0
  0
LINE
  5
2c0
100
AcDbEntity
  8
Layer_1
 62
7
100
AcDbLine
 10
43.990322
 20
268.899715
 30
0.0
 11
44.219814
 21
268.899715
 31
0.0
  0
LINE
  5
2c1
100
AcDbEntity
  8
Layer_1
 62
7
100
AcDbLine
 10
44.219814
 20
268.899715
 30
0.0
 11
44.219814
 21
268.355282
 31
0.0
  0
LINE
  5
2c2
100
AcDbEntity
  8
Layer_1
 62
7
100
AcDbLine
 10
44.219814
 20
268.355282
 30
0.0
 11
43.990322
 21
268.355282
 31
0.0
  0
LINE
  5
2c3
100
AcDbEntity
  8
Layer_1
 62
7
100
AcDbLine
 10
43.990322
 20
268.355282
 30
0.0
 11
43.990322
 21
267.515438
 31
0.0
  0
LINE
  5
2c4
100
AcDbEntity
  8
Layer_1
 62
7
100
AcDbLine
 10
43.990322
 20
267.515438
 30
0.0
 11
43.235928
 21
267.515438
 31
0.0
  0
LINE
  5
2c5
100
AcDbEntity
  8
Layer_1
 62
7
100
AcDbLine
 10
43.235928
 20
267.515438
 30
0.0
 11
43.235928
 21
268.355282
 31
0.0
  0
LINE
  5
2c6
100
AcDbEntity
  8
Layer_1
 62
7
100
AcDbLine
 10
43.235928
 20
268.355282
 30
0.0
 11
41.905361
 21
268.355282
 31
0.0
  0
LINE
  5
2c7
100
AcDbEntity
  8
Layer_1
 62
7
100
AcDbLine
 10
41.905361
 20
268.355282
 30
0.0
 11
41.905361
 21
268.899715
 31
0.0
  0
LINE
  5
2c8
100
AcDbEntity
  8
Layer_1
 62
7
100
AcDbLine
 10
41.905361
 20
268.899715
 30
0.0
 11
43.509365
 21
270.970028
 31
0.0
  0
LINE
  5
2c9
100
AcDbEntity
  8
Layer_1
 62
7
100
AcDbLine
 10
43.509365
 20
270.970028
 30
0.0
 11
43.990322
 21
270.970028
 31
0.0
  0
LINE
  5
2ca
100
AcDbEntity
  8
Layer_1
 62
7
100
AcDbLine
 10
42.505947
 20
268.899715
 30
0.0
 11
43.235928
 21
268.899715
 31
0.0
  0
LINE
  5
2cb
100
AcDbEntity
  8
Layer_1
 62
7
100
AcDbLine
 10
43.235928
 20
268.899715
 30
0.0
 11
43.235928
 21
269.829891
 31
0.0
  0
LINE
  5
2cc
100
AcDbEntity
  8
Layer_1
 62
7
100
AcDbLine
 10
43.235928
 20
269.829891
 30
0.0
 11
42.505947
 21
268.899715
 31
0.0
  0
SPLINE
  5
2cd
100
AcDbEntity
  8
Layer_1
 62
7
100
AcDbSpline
 70
8
 71
3
 72
8
 73
4
 74
0
 40
0
 40
0
 40
0
 40
0
 40
1
 40
1
 40
1
 40
1
 10
46.042797
 20
248.009909
 30
0.0
 10
45.607288
 20
247.747614
 30
0.0
 10
45.112392
 20
247.569451
 30
0.0
 10
44.558108
 20
247.475421
 30
0.0
  0
SPLINE
  5
2ce
100
AcDbEntity
  8
Layer_1
 62
7
100
AcDbSpline
 70
8
 71
3
 72
8
 73
4
 74
0
 40
0
 40
0
 40
0
 40
0
 40
1
 40
1
 40
1
 40
1
 10
44.558108
 20
247.475421
 30
0.0
 10
44.493771
 20
247.762461
 30
0.0
 10
44.461603
 20
248.044552
 30
0.0
 10
44.461603
 20
248.321694
 30
0.0
  0
SPLINE
  5
2cf
100
AcDbEntity
  8
Layer_1
 62
7
100
AcDbSpline
 70
8
 71
3
 72
8
 73
4
 74
0
 40
0
 40
0
 40
0
 40
0
 40
1
 40
1
 40
1
 40
1
 10
44.461603
 20
248.321694
 30
0.0
 10
44.461603
 20
248.786897
 30
0.0
 10
44.585327
 20
249.279319
 30
0.0
 10
44.832775
 20
249.798960
 30
0.0
  0
LINE
  5
2d0
100
AcDbEntity
  8
Layer_1
 62
7
100
AcDbLine
 10
44.832775
 20
249.798960
 30
0.0
 11
44.936703
 21
249.798960
 31
0.0
  0
SPLINE
  5
2d1
100
AcDbEntity
  8
Layer_1
 62
7
100
AcDbSpline
 70
8
 71
3
 72
8
 73
4
 74
0
 40
0
 40
0
 40
0
 40
0
 40
1
 40
1
 40
1
 40
1
 10
44.936703
 20
249.798960
 30
0.0
 10
45.416753
 20
249.798960
 30
0.0
 10
45.656778
 20
250.521509
 30
0.0
 10
45.656778
 20
251.966607
 30
0.0
  0
SPLINE
  5
2d2
100
AcDbEntity
  8
Layer_1
 62
7
100
AcDbSpline
 70
8
 71
3
 72
8
 73
4
 74
0
 40
0
 40
0
 40
0
 40
0
 40
1
 40
1
 40
1
 40
1
 10
45.656778
 20
251.966607
 30
0.0
 10
45.656778
 20
253.461195
 30
0.0
 10
45.416753
 20
254.208489
 30
0.0
 10
44.936703
 20
254.208489
 30
0.0
  0
LINE
  5
2d3
100
AcDbEntity
  8
Layer_1
 62
7
100
AcDbLine
 10
44.936703
 20
254.208489
 30
0.0
 11
44.832775
 21
254.208489
 31
0.0
  0
SPLINE
  5
2d4
100
AcDbEntity
  8
Layer_1
 62
7
100
AcDbSpline
 70
8
 71
3
 72
8
 73
4
 74
0
 40
0
 40
0
 40
0
 40
0
 40
1
 40
1
 40
1
 40
1
 10
44.832775
 20
254.208489
 30
0.0
 10
44.545735
 20
254.703386
 30
0.0
 10
44.402215
 20
255.188384
 30
0.0
 10
44.402215
 20
255.663485
 30
0.0
  0
SPLINE
  5
2d5
100
AcDbEntity
  8
Layer_1
 62
7
100
AcDbSpline
 70
8
 71
3
 72
8
 73
4
 74
0
 40
0
 40
0
 40
0
 40
0
 40
1
 40
1
 40
1
 40
1
 10
44.402215
 20
255.663485
 30
0.0
 10
44.402215
 20
255.955474
 30
0.0
 10
44.454179
 20
256.242514
 30
0.0
 10
44.558108
 20
256.524605
 30
0.0
  0
SPLINE
  5
2d6
100
AcDbEntity
  8
Layer_1
 62
7
100
AcDbSpline
 70
8
 71
3
 72
8
 73
4
 74
0
 40
0
 40
0
 40
0
 40
0
 40
1
 40
1
 40
1
 40
1
 10
44.558108
 20
256.524605
 30
0.0
 10
45.067851
 20
256.440473
 30
0.0
 10
45.562747
 20
256.262310
 30
0.0
 10
46.042797
 20
255.990117
 30
0.0
  0
SPLINE
  5
2d7
100
AcDbEntity
  8
Layer_1
 62
7
100
AcDbSpline
 70
8
 71
3
 72
8
 73
4
 74
0
 40
0
 40
0
 40
0
 40
0
 40
1
 40
1
 40
1
 40
1
 10
46.042797
 20
255.990117
 30
0.0
 10
46.270450
 20
255.381394
 30
0.0
 10
46.441189
 20
254.745452
 30
0.0
 10
46.555015
 20
254.082290
 30
0.0
  0
SPLINE
  5
2d8
100
AcDbEntity
  8
Layer_1
 62
7
100
AcDbSpline
 70
8
 71
3
 72
8
 73
4
 74
0
 40
0
 40
0
 40
0
 40
0
 40
1
 40
1
 40
1
 40
1
 10
46.555015
 20
254.082290
 30
0.0
 10
46.668842
 20
253.419129
 30
0.0
 10
46.725755
 20
252.728748
 30
0.0
 10
46.725755
 20
252.011148
 30
0.0
  0
SPLINE
  5
2d9
100
AcDbEntity
  8
Layer_1
 62
7
100
AcDbSpline
 70
8
 71
3
 72
8
 73
4
 74
0
 40
0
 40
0
 40
0
 40
0
 40
1
 40
1
 40
1
 40
1
 10
46.725755
 20
252.011148
 30
0.0
 10
46.725755
 20
251.278701
 30
0.0
 10
46.668842
 20
250.578422
 30
0.0
 10
46.555015
 20
249.910312
 30
0.0
  0
SPLINE
  5
2da
100
AcDbEntity
  8
Layer_1
 62
7
100
AcDbSpline
 70
8
 71
3
 72
8
 73
4
 74
0
 40
0
 40
0
 40
0
 40
0
 40
1
 40
1
 40
1
 40
1
 10
46.555015
 20
249.910312
 30
0.0
 10
46.441189
 20
249.247151
 30
0.0
 10
46.270450
 20
248.613683
 30
0.0
 10
46.042797
 20
248.009909
 30
0.0
  0
LINE
  5
2db
100
AcDbEntity
  8
Layer_1
 62
7
100
AcDbLine
 10
46.042797
 20
248.009909
 30
0.0
 11
46.042797
 21
248.009909
 31
0.0
  0
LINE
  5
2dc
100
AcDbEntity
  8
Layer_1
 62
7
100
AcDbLine
 10
44.342827
 20
247.475421
 30
0.0
 11
44.112701
 21
247.475421
 31
0.0
  0
SPLINE
  5
2dd
100
AcDbEntity
  8
Layer_1
 62
7
100
AcDbSpline
 70
8
 71
3
 72
8
 73
4
 74
0
 40
0
 40
0
 40
0
 40
0
 40
1
 40
1
 40
1
 40
1
 10
44.112701
 20
247.475421
 30
0.0
 10
43.815763
 20
247.475421
 30
0.0
 10
43.610381
 20
247.539758
 30
0.0
 10
43.496554
 20
247.668431
 30
0.0
  0
SPLINE
  5
2de
100
AcDbEntity
  8
Layer_1
 62
7
100
AcDbSpline
 70
8
 71
3
 72
8
 73
4
 74
0
 40
0
 40
0
 40
0
 40
0
 40
1
 40
1
 40
1
 40
1
 10
43.496554
 20
247.668431
 30
0.0
 10
43.387677
 20
247.797104
 30
0.0
 10
43.333238
 20
248.032179
 30
0.0
 10
43.333238
 20
248.373658
 30
0.0
  0
SPLINE
  5
2df
100
AcDbEntity
  8
Layer_1
 62
7
100
AcDbSpline
 70
8
 71
3
 72
8
 73
4
 74
0
 40
0
 40
0
 40
0
 40
0
 40
1
 40
1
 40
1
 40
1
 10
43.333238
 20
248.373658
 30
0.0
 10
43.333238
 20
249.323860
 30
0.0
 10
43.679666
 20
249.798960
 30
0.0
 10
44.372521
 20
249.798960
 30
0.0
  0
LINE
  5
2e0
100
AcDbEntity
  8
Layer_1
 62
7
100
AcDbLine
 10
44.372521
 20
249.798960
 30
0.0
 11
44.595225
 21
249.798960
 31
0.0
  0
SPLINE
  5
2e1
100
AcDbEntity
  8
Layer_1
 62
7
100
AcDbSpline
 70
8
 71
3
 72
8
 73
4
 74
0
 40
0
 40
0
 40
0
 40
0
 40
1
 40
1
 40
1
 40
1
 10
44.595225
 20
249.798960
 30
0.0
 10
44.347776
 20
249.343655
 30
0.0
 10
44.224052
 20
248.851233
 30
0.0
 10
44.224052
 20
248.321694
 30
0.0
  0
SPLINE
  5
2e2
100
AcDbEntity
  8
Layer_1
 62
7
100
AcDbSpline
 70
8
 71
3
 72
8
 73
4
 74
0
 40
0
 40
0
 40
0
 40
0
 40
1
 40
1
 40
1
 40
1
 10
44.224052
 20
248.321694
 30
0.0
 10
44.224052
 20
248.024756
 30
0.0
 10
44.263644
 20
247.742665
 30
0.0
 10
44.342827
 20
247.475421
 30
0.0
  0
LINE
  5
2e3
100
AcDbEntity
  8
Layer_1
 62
7
100
AcDbLine
 10
44.342827
 20
247.475421
 30
0.0
 11
44.342827
 21
247.475421
 31
0.0
  0
LINE
  5
2e4
100
AcDbEntity
  8
Layer_1
 62
7
100
AcDbLine
 10
44.558108
 20
254.208489
 30
0.0
 11
44.379945
 21
254.208489
 31
0.0
  0
SPLINE
  5
2e5
100
AcDbEntity
  8
Layer_1
 62
7
100
AcDbSpline
 70
8
 71
3
 72
8
 73
4
 74
0
 40
0
 40
0
 40
0
 40
0
 40
1
 40
1
 40
1
 40
1
 10
44.379945
 20
254.208489
 30
0.0
 10
43.642549
 20
254.208489
 30
0.0
 10
43.273851
 20
254.676166
 30
0.0
 10
43.273851
 20
255.611521
 30
0.0
  0
SPLINE
  5
2e6
100
AcDbEntity
  8
Layer_1
 62
7
100
AcDbSpline
 70
8
 71
3
 72
8
 73
4
 74
0
 40
0
 40
0
 40
0
 40
0
 40
1
 40
1
 40
1
 40
1
 10
43.273851
 20
255.611521
 30
0.0
 10
43.273851
 20
255.967846
 30
0.0
 10
43.330764
 20
256.207871
 30
0.0
 10
43.444590
 20
256.331596
 30
0.0
  0
SPLINE
  5
2e7
100
AcDbEntity
  8
Layer_1
 62
7
100
AcDbSpline
 70
8
 71
3
 72
8
 73
4
 74
0
 40
0
 40
0
 40
0
 40
0
 40
1
 40
1
 40
1
 40
1
 10
43.444590
 20
256.331596
 30
0.0
 10
43.563365
 20
256.460268
 30
0.0
 10
43.788543
 20
256.524605
 30
0.0
 10
44.120124
 20
256.524605
 30
0.0
  0
LINE
  5
2e8
100
AcDbEntity
  8
Layer_1
 62
7
100
AcDbLine
 10
44.120124
 20
256.524605
 30
0.0
 11
44.327981
 21
256.524605
 31
0.0
  0
SPLINE
  5
2e9
100
AcDbEntity
  8
Layer_1
 62
7
100
AcDbSpline
 70
8
 71
3
 72
8
 73
4
 74
0
 40
0
 40
0
 40
0
 40
0
 40
1
 40
1
 40
1
 40
1
 10
44.327981
 20
256.524605
 30
0.0
 10
44.219103
 20
256.202922
 30
0.0
 10
44.164665
 20
255.910933
 30
0.0
 10
44.164665
 20
255.648638
 30
0.0
  0
SPLINE
  5
2ea
100
AcDbEntity
  8
Layer_1
 62
7
100
AcDbSpline
 70
8
 71
3
 72
8
 73
4
 74
0
 40
0
 40
0
 40
0
 40
0
 40
1
 40
1
 40
1
 40
1
 10
44.164665
 20
255.648638
 30
0.0
 10
44.164665
 20
255.148792
 30
0.0
 10
44.295812
 20
254.668743
 30
0.0
 10
44.558108
 20
254.208489
 30
0.0
  0
LINE
  5
2eb
100
AcDbEntity
  8
Layer_1
 62
7
100
AcDbLine
 10
44.558108
 20
254.208489
 30
0.0
 11
44.558108
 21
254.208489
 31
0.0
  0
LINE
  5
2ec
100
AcDbEntity
  8
Layer_1
 62
7
100
AcDbLine
 10
20.000000
 20
277.000000
 30
0.0
 11
70.000000
 21
277.000000
 31
0.0
  0
LINE
  5
2ed
100
AcDbEntity
  8
Layer_1
 62
7
100
AcDbLine
 10
70.000000
 20
277.000000
 30
0.0
 11
70.000000
 21
227.000000
 31
0.0
  0
LINE
  5
2ee
100
AcDbEntity
  8
Layer_1
 62
7
100
AcDbLine
 10
70.000000
 20
227.000000
 30
0.0
 11
20.000000
 21
227.000000
 31
0.0
  0
LINE
  5
2ef
100
AcDbEntity
  8
Layer_1
 62
7
100
AcDbLine
 10
20.000000
 20
227.000000
 30
0.0
 11
20.000000
 21
277.000000
 31
0.0
  0
ENDSEC
  0
SECTION
  2
OBJECTS
  0
DICTIONARY
  5
C
330
0
100
AcDbDictionary
  3
ACAD_GROUP
350
D
  3
ACAD_MLINESTYLE
350
17
  0
DICTIONARY
  5
D
330
C
100
AcDbDictionary
  0
DICTIONARY
  5
1A
330
C
100
AcDbDictionary
  0
DICTIONARY
  5
17
330
C
100
AcDbDictionary
  3
STANDARD
350
18
  0
DICTIONARY
  5
19
330
C
100
AcDbDictionary
  0
ENDSEC
  0
EOF
